<svg width="307" height="121" viewBox="0 0 307 121" fill="none" xmlns="http://www.w3.org/2000/svg">
<path d="M14.8533 119.272C13.8575 119.331 12.8781 119 12.1242 118.349C11.4905 117.734 11.1551 116.813 11.1182 115.588V113.323C11.1525 112.122 11.5024 111.208 12.1678 110.582C12.5302 110.254 12.9541 110.002 13.4151 109.839C13.876 109.676 14.3648 109.605 14.8533 109.631C15.3399 109.606 15.8268 109.677 16.2857 109.84C16.7446 110.003 17.1665 110.255 17.527 110.582C18.1924 111.205 18.5423 112.119 18.5766 113.323C18.5766 113.844 18.6043 114.219 18.6043 114.452C18.6043 114.684 18.6043 115.051 18.5766 115.588C18.5423 116.819 18.2016 117.739 17.5547 118.349C16.8121 119.001 15.8409 119.332 14.8533 119.272ZM14.8533 118.132C15.1648 118.147 15.476 118.098 15.7677 117.988C16.0593 117.878 16.3251 117.71 16.5486 117.493C17.0149 116.943 17.2592 116.24 17.2338 115.521C17.2338 114.984 17.2576 114.629 17.2576 114.452C17.2576 114.274 17.2576 113.895 17.2338 113.379C17.2599 112.656 17.0093 111.951 16.5328 111.406C16.3121 111.19 16.049 111.022 15.7601 110.912C15.4711 110.802 15.1624 110.753 14.8533 110.767C14.5402 110.753 14.2274 110.802 13.934 110.912C13.6405 111.022 13.3725 111.19 13.1462 111.406C12.6798 111.956 12.4356 112.659 12.4609 113.379V115.521C12.4356 116.24 12.6798 116.943 13.1462 117.493C13.3725 117.709 13.6405 117.877 13.934 117.987C14.2274 118.097 14.5402 118.146 14.8533 118.132ZM20.87 119.138C20.7876 119.14 20.7074 119.112 20.6442 119.059C20.5883 118.996 20.5586 118.915 20.561 118.831V110.093C20.5583 110.051 20.5643 110.009 20.5786 109.969C20.593 109.93 20.6154 109.894 20.6444 109.863C20.6734 109.833 20.7084 109.809 20.7473 109.793C20.7861 109.776 20.8279 109.768 20.87 109.769H26.7163C26.7593 109.767 26.8022 109.774 26.8419 109.791C26.8817 109.807 26.9172 109.832 26.9461 109.864C26.9784 109.892 27.0039 109.927 27.0203 109.967C27.0368 110.007 27.0439 110.05 27.0411 110.093V110.625C27.0405 110.669 27.0307 110.711 27.0123 110.751C26.9938 110.79 26.9672 110.825 26.9342 110.854C26.9033 110.882 26.8671 110.904 26.8275 110.917C26.788 110.931 26.7461 110.936 26.7044 110.933H21.88V113.639H24.5576C25.363 113.59 26.1563 113.853 26.7718 114.373C27.0387 114.625 27.2477 114.932 27.3844 115.273C27.5212 115.613 27.5824 115.979 27.564 116.345C27.5641 116.815 27.4441 117.276 27.2154 117.687C26.9759 118.129 26.6163 118.495 26.1776 118.744C25.6835 119.019 25.1235 119.156 24.5576 119.138H20.87ZM24.3794 118.053C24.6231 118.065 24.8667 118.027 25.0954 117.942C25.3241 117.858 25.5332 117.728 25.7102 117.56C25.8718 117.396 25.9988 117.201 26.0838 116.987C26.1688 116.773 26.2102 116.544 26.2054 116.314C26.2182 116.098 26.1837 115.882 26.1044 115.681C26.0251 115.48 25.9027 115.299 25.7459 115.15C25.5603 114.991 25.3451 114.871 25.1127 114.795C24.8803 114.719 24.6351 114.69 24.3913 114.708H21.88V118.053H24.3794ZM31.0654 119.138C30.9831 119.14 30.9029 119.112 30.8396 119.059C30.7838 118.996 30.7541 118.915 30.7565 118.831V110.909H28.6334C28.5492 110.911 28.4673 110.881 28.4037 110.826C28.3509 110.762 28.3228 110.681 28.3245 110.597V110.093C28.3228 110.009 28.3509 109.928 28.4037 109.864C28.4336 109.833 28.4693 109.809 28.5088 109.793C28.5483 109.777 28.5907 109.769 28.6334 109.769H31.7665C31.807 109.768 31.8473 109.776 31.8843 109.792C31.9214 109.808 31.9542 109.833 31.9804 109.864C32.0116 109.887 32.0371 109.918 32.0549 109.953C32.0728 109.987 32.0825 110.026 32.0834 110.065V113.316H34.0163C34.8411 113.262 35.655 113.526 36.2899 114.053C36.5661 114.332 36.7795 114.666 36.9161 115.034C37.0527 115.401 37.1093 115.793 37.0821 116.184C37.0848 116.69 36.9652 117.189 36.7335 117.639C36.5019 118.102 36.1381 118.486 35.6878 118.744C35.174 119.024 34.5937 119.16 34.0084 119.138H31.0654ZM33.9014 118.014C34.1489 118.03 34.3969 117.993 34.6296 117.908C34.8622 117.822 35.0742 117.689 35.2521 117.517C35.4219 117.337 35.5535 117.125 35.6393 116.893C35.725 116.661 35.7631 116.414 35.7512 116.168C35.7512 115.016 35.1373 114.44 33.9094 114.44H32.0834V118.014H33.9014ZM39.0586 119.138C38.9763 119.139 38.8964 119.111 38.8328 119.059C38.777 118.996 38.7472 118.915 38.7496 118.831V110.093C38.7467 110.051 38.7525 110.009 38.7669 109.969C38.7812 109.93 38.8037 109.894 38.8328 109.864C38.862 109.833 38.897 109.809 38.9359 109.793C38.9747 109.777 39.0165 109.769 39.0586 109.769H44.6039C44.6444 109.768 44.6847 109.776 44.7217 109.792C44.7587 109.808 44.7916 109.833 44.8178 109.864C44.8502 109.892 44.8756 109.927 44.8921 109.967C44.9086 110.007 44.9157 110.05 44.9128 110.093V110.597C44.9153 110.681 44.8855 110.763 44.8297 110.826C44.8001 110.855 44.7646 110.878 44.7257 110.892C44.6868 110.906 44.6453 110.912 44.6039 110.909H40.0409V113.84H44.3147C44.355 113.838 44.3954 113.844 44.4326 113.86C44.4697 113.876 44.5026 113.9 44.5286 113.931C44.5606 113.96 44.5857 113.995 44.6021 114.035C44.6186 114.074 44.6259 114.117 44.6237 114.16V114.653C44.6246 114.696 44.6167 114.738 44.6003 114.777C44.5839 114.817 44.5595 114.852 44.5286 114.882C44.501 114.91 44.4676 114.932 44.4307 114.946C44.3938 114.96 44.3543 114.967 44.3147 114.965H40.0409V118.002H44.7188C44.7598 117.999 44.8012 118.004 44.8401 118.018C44.879 118.031 44.9146 118.053 44.9445 118.081C44.9737 118.111 44.9961 118.147 45.0105 118.187C45.0248 118.226 45.0307 118.268 45.0277 118.31V118.831C45.0286 118.873 45.0207 118.916 45.0043 118.955C44.9879 118.994 44.9635 119.03 44.9326 119.059C44.904 119.086 44.8703 119.107 44.8336 119.12C44.7969 119.134 44.7579 119.14 44.7188 119.138H39.0586ZM46.3427 121C46.2584 121.003 46.1763 120.973 46.113 120.917C46.0577 120.856 46.0292 120.775 46.0338 120.693V118.243C46.0305 118.163 46.059 118.085 46.113 118.026C46.1776 117.974 46.2599 117.948 46.3427 117.955H46.624C47.4954 117.955 47.9298 116.295 47.9271 112.976V110.065C47.9251 110.026 47.9311 109.987 47.9447 109.95C47.9584 109.914 47.9793 109.88 48.0063 109.852C48.0362 109.821 48.072 109.797 48.1115 109.781C48.151 109.765 48.1933 109.757 48.2361 109.757H53.4724C53.5586 109.757 53.6412 109.791 53.7021 109.852C53.763 109.913 53.7972 109.995 53.7972 110.081V117.955H54.4547C54.5403 117.954 54.6229 117.986 54.6845 118.046C54.7152 118.072 54.7394 118.106 54.7552 118.144C54.7709 118.181 54.7779 118.222 54.7756 118.263V120.712C54.7773 120.752 54.77 120.792 54.7543 120.829C54.7385 120.866 54.7147 120.899 54.6845 120.925C54.6557 120.957 54.6201 120.982 54.5803 120.999C54.5406 121.015 54.4977 121.022 54.4547 121.02H53.7695C53.6851 121.022 53.603 120.993 53.5398 120.937C53.4845 120.876 53.456 120.795 53.4605 120.712V119.138H47.3567V120.693C47.3577 120.733 47.35 120.772 47.3343 120.809C47.3186 120.846 47.2952 120.879 47.2656 120.906C47.2368 120.937 47.2013 120.962 47.1615 120.979C47.1218 120.995 47.0789 121.003 47.0359 121H46.3427ZM52.4822 117.935V110.972H49.2184V113.13C49.2361 114.151 49.1646 115.171 49.0045 116.18C48.9179 116.806 48.6919 117.406 48.343 117.935H52.4822ZM56.7243 119.138C56.6409 119.139 56.5597 119.111 56.4946 119.059C56.4424 118.99 56.4145 118.905 56.4154 118.819V110.093C56.412 110.051 56.4176 110.008 56.4317 109.969C56.4458 109.929 56.4682 109.893 56.4974 109.862C56.5265 109.832 56.5618 109.807 56.6009 109.791C56.64 109.775 56.6821 109.768 56.7243 109.769H57.4333C57.4739 109.768 57.5141 109.776 57.5512 109.792C57.5882 109.808 57.621 109.833 57.6472 109.864C57.6781 109.893 57.7025 109.929 57.7189 109.968C57.7353 110.008 57.7432 110.05 57.7423 110.093V117.012L62.7529 109.958C62.7848 109.898 62.8335 109.848 62.8932 109.814C62.9529 109.781 63.0211 109.765 63.0896 109.769H63.7471C63.7877 109.767 63.8281 109.775 63.8653 109.791C63.9024 109.808 63.9352 109.832 63.961 109.864C63.9934 109.892 64.0188 109.927 64.0353 109.967C64.0517 110.007 64.0589 110.05 64.056 110.093V118.831C64.057 118.873 64.049 118.916 64.0326 118.955C64.0163 118.994 63.9919 119.03 63.961 119.059C63.9326 119.086 63.8989 119.107 63.8622 119.121C63.8254 119.134 63.7862 119.14 63.7471 119.138H63.0618C62.9783 119.14 62.8969 119.112 62.8321 119.059C62.7726 118.998 62.7399 118.916 62.741 118.831V111.966L57.7423 118.949C57.7097 119.009 57.6608 119.058 57.6013 119.092C57.5417 119.125 57.4739 119.141 57.4056 119.138H56.7243ZM66.698 119.138C66.6563 119.143 66.6142 119.138 66.5748 119.124C66.5353 119.11 66.4995 119.087 66.4699 119.058C66.4403 119.028 66.4176 118.993 66.4036 118.953C66.3897 118.914 66.3847 118.872 66.389 118.831V110.093C66.3861 110.051 66.3919 110.009 66.4062 109.969C66.4206 109.93 66.443 109.894 66.4722 109.864C66.5009 109.833 66.5359 109.808 66.5748 109.792C66.6138 109.776 66.6557 109.768 66.698 109.769H67.3832C67.4262 109.767 67.4691 109.774 67.5088 109.791C67.5486 109.807 67.5841 109.832 67.6129 109.864C67.6453 109.892 67.6708 109.927 67.6872 109.967C67.7037 110.007 67.7108 110.05 67.708 110.093V113.785H72.3304V110.093C72.3279 110.051 72.3335 110.01 72.3471 109.97C72.3607 109.931 72.382 109.895 72.4096 109.864C72.4393 109.833 72.475 109.809 72.5145 109.792C72.5541 109.776 72.5966 109.768 72.6394 109.769H73.3246C73.3676 109.767 73.4105 109.774 73.4502 109.791C73.49 109.807 73.5255 109.832 73.5543 109.864C73.5853 109.893 73.6096 109.929 73.6253 109.968C73.641 110.008 73.6479 110.05 73.6454 110.093V118.831C73.6465 118.916 73.6138 118.998 73.5543 119.059C73.4893 119.111 73.408 119.139 73.3246 119.138H72.6394C72.5976 119.143 72.5551 119.139 72.5153 119.125C72.4755 119.112 72.4393 119.089 72.4096 119.059C72.3798 119.03 72.3572 118.994 72.3435 118.954C72.3298 118.914 72.3253 118.872 72.3304 118.831V114.988H67.708V118.831C67.7089 118.873 67.701 118.916 67.6846 118.955C67.6682 118.994 67.6438 119.03 67.6129 119.059C67.5482 119.112 67.4668 119.14 67.3832 119.138H66.698ZM76.2914 119.138C76.2497 119.143 76.2076 119.138 76.1682 119.124C76.1287 119.11 76.0928 119.087 76.0632 119.058C76.0336 119.028 76.011 118.993 75.997 118.953C75.983 118.914 75.9781 118.872 75.9824 118.831V110.093C75.9794 110.051 75.9853 110.009 75.9996 109.969C76.014 109.93 76.0364 109.894 76.0656 109.864C76.0943 109.833 76.1293 109.808 76.1682 109.792C76.2071 109.776 76.2491 109.768 76.2914 109.769H81.8367C81.8778 109.767 81.9187 109.775 81.9565 109.792C81.9942 109.808 82.0277 109.833 82.0545 109.864C82.0855 109.893 82.1097 109.929 82.1255 109.968C82.1412 110.008 82.1481 110.05 82.1456 110.093V110.597C82.1491 110.681 82.1208 110.763 82.0664 110.826C82.036 110.855 81.9999 110.878 81.9603 110.892C81.9208 110.906 81.8786 110.912 81.8367 110.909H77.2737V113.84H81.5475C81.5877 113.838 81.6278 113.846 81.6648 113.861C81.7018 113.877 81.7348 113.901 81.7614 113.931C81.7933 113.96 81.8184 113.995 81.8349 114.035C81.8513 114.074 81.8587 114.117 81.8565 114.16V114.653C81.8574 114.696 81.8494 114.738 81.8331 114.777C81.8167 114.817 81.7923 114.852 81.7614 114.882C81.7333 114.909 81.6998 114.931 81.6631 114.945C81.6263 114.959 81.587 114.966 81.5475 114.965H77.2737V118.002H81.9515C81.9926 117.999 82.0339 118.004 82.0727 118.018C82.1116 118.032 82.1472 118.053 82.1773 118.081C82.2065 118.111 82.2289 118.147 82.2432 118.187C82.2576 118.226 82.2634 118.268 82.2605 118.31V118.831C82.2614 118.873 82.2534 118.916 82.2371 118.955C82.2207 118.994 82.1963 119.03 82.1654 119.059C82.107 119.112 82.0304 119.141 81.9515 119.138H76.2914ZM84.4429 119.138C84.3594 119.14 84.278 119.112 84.2132 119.059C84.1588 118.996 84.1305 118.914 84.134 118.831V110.093C84.1305 110.051 84.1358 110.009 84.1494 109.97C84.163 109.93 84.1848 109.894 84.2132 109.864C84.2428 109.833 84.2785 109.809 84.3181 109.792C84.3576 109.776 84.4002 109.768 84.4429 109.769H85.1282C85.1706 109.766 85.2131 109.773 85.2523 109.79C85.2915 109.806 85.3263 109.832 85.354 109.864C85.3864 109.892 85.4118 109.927 85.4283 109.967C85.4447 110.007 85.4519 110.05 85.449 110.093V113.785H90.0714V110.093C90.0687 110.051 90.0747 110.009 90.089 109.969C90.1034 109.93 90.1258 109.894 90.1548 109.863C90.1838 109.833 90.2189 109.809 90.2577 109.793C90.2965 109.776 90.3383 109.768 90.3804 109.769H91.0656C91.1086 109.767 91.1515 109.774 91.1912 109.791C91.231 109.807 91.2666 109.832 91.2954 109.864C91.3278 109.892 91.3532 109.927 91.3697 109.967C91.3861 110.007 91.3932 110.05 91.3904 110.093V118.831C91.3914 118.873 91.3834 118.916 91.367 118.955C91.3507 118.994 91.3263 119.03 91.2954 119.059C91.2306 119.112 91.1492 119.14 91.0656 119.138H90.3804C90.298 119.14 90.2178 119.112 90.1546 119.059C90.0988 118.996 90.069 118.915 90.0714 118.831V114.988H85.449V118.831C85.45 118.873 85.442 118.916 85.4256 118.955C85.4093 118.994 85.3849 119.03 85.354 119.059C85.2908 119.112 85.2106 119.14 85.1282 119.138H84.4429ZM94.0363 119.138C93.9528 119.14 93.8714 119.112 93.8066 119.059C93.7522 118.996 93.7239 118.914 93.7274 118.831V110.093C93.7239 110.051 93.7291 110.009 93.7428 109.97C93.7564 109.93 93.7782 109.894 93.8066 109.864C93.8362 109.833 93.8719 109.809 93.9115 109.792C93.951 109.776 93.9935 109.768 94.0363 109.769H94.7216C94.764 109.766 94.8065 109.773 94.8457 109.79C94.8849 109.806 94.9197 109.832 94.9473 109.864C94.9797 109.892 95.0052 109.927 95.0216 109.967C95.0381 110.007 95.0452 110.05 95.0424 110.093V113.785H99.6648V110.093C99.6621 110.051 99.6681 110.009 99.6824 109.969C99.6968 109.93 99.7192 109.894 99.7482 109.863C99.7772 109.833 99.8122 109.809 99.8511 109.793C99.8899 109.776 99.9317 109.768 99.9738 109.769H100.659C100.702 109.767 100.745 109.774 100.785 109.791C100.824 109.807 100.86 109.832 100.889 109.864C100.921 109.892 100.947 109.927 100.963 109.967C100.98 110.007 100.987 110.05 100.984 110.093V118.831C100.985 118.873 100.977 118.916 100.96 118.955C100.944 118.994 100.92 119.03 100.889 119.059C100.824 119.112 100.743 119.14 100.659 119.138H99.9738C99.8914 119.14 99.8112 119.112 99.748 119.059C99.6921 118.996 99.6624 118.915 99.6648 118.831V114.988H95.0622V118.831C95.0631 118.873 95.0552 118.916 95.0388 118.955C95.0224 118.994 94.998 119.03 94.9671 119.059C94.9036 119.111 94.8236 119.139 94.7414 119.138H94.0363ZM102.687 119.138C102.652 119.138 102.618 119.131 102.586 119.118C102.554 119.104 102.525 119.084 102.501 119.059C102.475 119.035 102.454 119.006 102.44 118.973C102.425 118.941 102.418 118.906 102.418 118.87C102.409 118.822 102.409 118.772 102.418 118.724L105.757 110.065C105.784 109.974 105.842 109.895 105.921 109.842C105.999 109.788 106.093 109.762 106.188 109.769H107.099C107.194 109.762 107.289 109.788 107.367 109.842C107.446 109.895 107.504 109.974 107.531 110.065L110.858 118.744L110.886 118.89C110.886 118.925 110.879 118.96 110.864 118.993C110.85 119.026 110.829 119.055 110.803 119.079C110.779 119.104 110.75 119.124 110.718 119.138C110.686 119.151 110.652 119.158 110.617 119.158H109.932C109.85 119.162 109.768 119.139 109.702 119.091C109.655 119.046 109.618 118.99 109.595 118.929L108.854 117.032H104.45L103.709 118.929C103.685 118.994 103.642 119.05 103.586 119.091C103.525 119.138 103.449 119.162 103.372 119.158L102.687 119.138ZM108.466 115.86L106.652 111.106L104.838 115.86H108.466ZM118.543 109.769C118.584 109.767 118.625 109.775 118.662 109.792C118.7 109.808 118.734 109.833 118.76 109.864C118.791 109.89 118.815 109.923 118.83 109.96C118.846 109.997 118.853 110.037 118.852 110.077V118.831C118.853 118.916 118.82 118.998 118.76 119.059C118.701 119.113 118.623 119.142 118.543 119.138H117.857C117.775 119.139 117.695 119.111 117.632 119.059C117.601 119.03 117.576 118.994 117.56 118.955C117.544 118.916 117.536 118.873 117.537 118.831V115.588H115.695L113.667 118.783C113.611 118.89 113.538 118.986 113.449 119.067C113.357 119.125 113.249 119.153 113.14 119.146H112.49C112.455 119.146 112.42 119.139 112.387 119.126C112.355 119.112 112.325 119.092 112.3 119.067C112.275 119.043 112.254 119.013 112.241 118.981C112.227 118.948 112.22 118.913 112.221 118.878C112.222 118.827 112.236 118.777 112.261 118.732L114.344 115.466C113.766 115.331 113.255 114.993 112.906 114.515C112.548 113.982 112.369 113.349 112.395 112.708C112.391 112.207 112.506 111.712 112.732 111.264C112.966 110.815 113.325 110.443 113.766 110.191C114.281 109.903 114.866 109.759 115.457 109.777L118.543 109.769ZM117.537 110.893H115.576C115.328 110.879 115.08 110.918 114.848 111.005C114.616 111.093 114.405 111.228 114.229 111.402C114.065 111.58 113.937 111.789 113.854 112.017C113.771 112.244 113.734 112.486 113.746 112.728C113.746 113.88 114.356 114.456 115.576 114.456H117.537V110.893ZM127.875 119.272C126.686 119.272 125.759 118.949 125.134 118.31C124.481 117.575 124.126 116.624 124.139 115.643V113.256C124.127 112.278 124.486 111.331 125.146 110.605C125.775 109.954 126.682 109.627 127.875 109.627C128.581 109.606 129.283 109.756 129.918 110.065C130.434 110.306 130.871 110.686 131.182 111.162C131.464 111.599 131.627 112.102 131.653 112.621V112.649C131.652 112.685 131.643 112.72 131.627 112.752C131.61 112.784 131.587 112.812 131.558 112.834C131.506 112.878 131.44 112.901 131.372 112.901H130.631C130.546 112.903 130.464 112.871 130.402 112.814C130.339 112.757 130.301 112.678 130.295 112.594C130.213 112.038 129.919 111.535 129.475 111.189C129.002 110.891 128.449 110.746 127.89 110.775C126.351 110.775 125.559 111.626 125.514 113.327V115.58C125.564 117.284 126.356 118.135 127.89 118.132C128.446 118.162 128.998 118.025 129.475 117.738C129.923 117.389 130.217 116.879 130.295 116.318C130.309 116.226 130.352 116.142 130.418 116.077C130.478 116.03 130.554 116.006 130.631 116.01H131.372C131.41 116.009 131.447 116.016 131.482 116.03C131.517 116.045 131.548 116.066 131.574 116.093C131.603 116.113 131.626 116.142 131.64 116.174C131.654 116.207 131.659 116.243 131.653 116.278C131.628 116.801 131.465 117.309 131.182 117.75C130.869 118.227 130.433 118.612 129.918 118.862C129.279 119.156 128.579 119.297 127.875 119.272ZM135.804 119.138C135.721 119.14 135.639 119.112 135.575 119.059C135.52 118.996 135.492 118.914 135.495 118.831V110.941H132.913C132.829 110.942 132.748 110.914 132.683 110.862C132.63 110.797 132.602 110.716 132.604 110.633V110.073C132.602 109.99 132.63 109.908 132.683 109.844C132.713 109.814 132.749 109.79 132.788 109.773C132.828 109.757 132.87 109.749 132.913 109.749H139.393C139.435 109.747 139.478 109.754 139.517 109.77C139.556 109.787 139.591 109.812 139.619 109.844C139.651 109.872 139.677 109.908 139.693 109.947C139.71 109.987 139.717 110.03 139.714 110.073V110.633C139.715 110.676 139.707 110.718 139.69 110.757C139.674 110.797 139.65 110.832 139.619 110.862C139.555 110.914 139.475 110.942 139.393 110.941H136.822V118.831C136.824 118.873 136.816 118.915 136.801 118.954C136.785 118.994 136.761 119.03 136.731 119.059C136.666 119.112 136.585 119.14 136.501 119.138H135.804ZM141.528 119.138C141.446 119.14 141.365 119.112 141.302 119.059C141.246 118.996 141.217 118.915 141.219 118.831V110.093C141.216 110.051 141.222 110.009 141.237 109.969C141.251 109.93 141.273 109.894 141.302 109.863C141.331 109.833 141.366 109.809 141.405 109.793C141.444 109.776 141.486 109.768 141.528 109.769H144.942C145.798 109.723 146.641 109.984 147.319 110.507C147.877 111.076 148.189 111.84 148.189 112.635C148.189 113.43 147.877 114.194 147.319 114.763C146.638 115.277 145.795 115.533 144.942 115.485H142.566V118.831C142.567 118.873 142.559 118.916 142.542 118.955C142.526 118.994 142.502 119.03 142.471 119.059C142.406 119.112 142.324 119.14 142.241 119.138H141.528ZM144.875 114.361C145.405 114.401 145.932 114.244 146.352 113.919C146.528 113.756 146.665 113.556 146.754 113.334C146.842 113.111 146.879 112.872 146.863 112.633C146.879 112.396 146.842 112.158 146.757 111.936C146.672 111.714 146.539 111.513 146.368 111.347C145.945 111.014 145.412 110.853 144.875 110.893H142.55V114.361H144.875ZM153.229 119.272C152.238 119.327 151.265 118.996 150.515 118.349C149.882 117.734 149.546 116.813 149.509 115.588V113.323C149.544 112.122 149.893 111.208 150.559 110.582C151.315 109.967 152.262 109.631 153.238 109.631C154.215 109.631 155.161 109.967 155.918 110.582C156.583 111.205 156.933 112.119 156.968 113.323C156.968 113.844 156.995 114.219 156.995 114.452C156.995 114.684 156.995 115.051 156.968 115.588C156.933 116.819 156.593 117.739 155.946 118.349C155.576 118.673 155.146 118.922 154.679 119.08C154.213 119.238 153.72 119.304 153.229 119.272ZM153.229 118.132C153.54 118.147 153.851 118.098 154.143 117.988C154.434 117.878 154.7 117.71 154.924 117.493C155.39 116.943 155.634 116.24 155.609 115.521C155.609 114.984 155.633 114.629 155.633 114.452C155.633 114.274 155.633 113.895 155.609 113.379C155.635 112.656 155.384 111.951 154.908 111.406C154.687 111.19 154.424 111.022 154.135 110.912C153.846 110.802 153.538 110.753 153.229 110.767C152.915 110.753 152.603 110.802 152.309 110.912C152.016 111.022 151.748 111.19 151.521 111.406C151.055 111.956 150.811 112.659 150.836 113.379V115.521C150.811 116.24 151.055 116.943 151.521 117.493C151.748 117.709 152.016 117.877 152.309 117.987C152.603 118.097 152.915 118.146 153.229 118.132ZM159.229 119.138C159.146 119.139 159.065 119.111 159 119.059C158.947 118.99 158.92 118.905 158.92 118.819V110.093C158.917 110.051 158.923 110.008 158.937 109.969C158.951 109.929 158.973 109.893 159.002 109.862C159.031 109.832 159.067 109.807 159.106 109.791C159.145 109.775 159.187 109.768 159.229 109.769H159.93C159.971 109.768 160.011 109.776 160.048 109.792C160.085 109.808 160.118 109.833 160.144 109.864C160.175 109.893 160.2 109.929 160.216 109.968C160.232 110.008 160.24 110.05 160.239 110.093V117.012L165.25 109.958C165.282 109.898 165.331 109.848 165.39 109.814C165.45 109.781 165.518 109.765 165.587 109.769H166.244C166.285 109.767 166.326 109.775 166.364 109.792C166.402 109.808 166.435 109.833 166.462 109.864C166.493 109.893 166.517 109.929 166.533 109.968C166.549 110.008 166.556 110.05 166.553 110.093V118.831C166.554 118.916 166.521 118.998 166.462 119.059C166.403 119.113 166.324 119.142 166.244 119.138H165.567C165.484 119.14 165.404 119.112 165.341 119.059C165.31 119.03 165.286 118.994 165.269 118.955C165.253 118.916 165.245 118.873 165.246 118.831V111.966L160.247 118.949C160.215 119.009 160.166 119.059 160.107 119.092C160.047 119.126 159.979 119.142 159.911 119.138H159.229ZM171.275 119.138C171.192 119.14 171.112 119.112 171.049 119.059C170.993 118.996 170.963 118.915 170.966 118.831V110.941H168.387C168.345 110.946 168.303 110.941 168.263 110.928C168.223 110.914 168.187 110.891 168.157 110.862C168.127 110.832 168.105 110.796 168.091 110.756C168.077 110.717 168.073 110.675 168.078 110.633V110.073C168.076 109.99 168.104 109.908 168.157 109.844C168.187 109.813 168.223 109.789 168.262 109.773C168.302 109.756 168.344 109.748 168.387 109.749H174.863C174.906 109.747 174.949 109.754 174.989 109.771C175.028 109.787 175.064 109.812 175.093 109.844C175.125 109.872 175.151 109.908 175.167 109.947C175.184 109.987 175.191 110.03 175.188 110.073V110.633C175.189 110.676 175.181 110.718 175.165 110.757C175.148 110.797 175.124 110.832 175.093 110.862C175.028 110.914 174.947 110.942 174.863 110.941H172.3V118.831C172.301 118.916 172.269 118.998 172.209 119.059C172.144 119.111 172.063 119.139 171.98 119.138H171.275ZM177.002 119.138C176.96 119.143 176.918 119.139 176.878 119.125C176.838 119.112 176.802 119.089 176.772 119.059C176.742 119.03 176.72 118.994 176.706 118.954C176.692 118.914 176.688 118.872 176.693 118.831V110.093C176.691 110.051 176.696 110.01 176.71 109.97C176.723 109.931 176.745 109.895 176.772 109.864C176.802 109.833 176.838 109.809 176.877 109.792C176.917 109.776 176.959 109.768 177.002 109.769H182.547C182.588 109.767 182.628 109.775 182.666 109.791C182.703 109.808 182.735 109.832 182.761 109.864C182.794 109.892 182.819 109.927 182.836 109.967C182.852 110.007 182.859 110.05 182.856 110.093V110.597C182.86 110.681 182.831 110.763 182.777 110.826C182.746 110.855 182.71 110.877 182.671 110.891C182.631 110.906 182.589 110.912 182.547 110.909H177.984V113.84H182.258C182.298 113.838 182.338 113.846 182.375 113.861C182.412 113.877 182.445 113.901 182.472 113.931C182.504 113.96 182.529 113.995 182.546 114.035C182.562 114.074 182.569 114.117 182.567 114.16V114.653C182.568 114.696 182.56 114.738 182.544 114.777C182.527 114.817 182.503 114.852 182.472 114.882C182.444 114.909 182.411 114.931 182.374 114.945C182.337 114.959 182.298 114.966 182.258 114.965H177.984V118.002H182.658C182.7 117.997 182.742 118.002 182.782 118.015C182.822 118.029 182.858 118.051 182.888 118.081C182.918 118.111 182.94 118.147 182.954 118.186C182.968 118.226 182.972 118.268 182.967 118.31V118.831C182.969 118.872 182.963 118.913 182.948 118.951C182.934 118.989 182.911 119.024 182.882 119.053C182.853 119.082 182.818 119.105 182.779 119.12C182.741 119.134 182.699 119.141 182.658 119.138H177.002ZM190.972 119.138C190.889 119.14 190.807 119.112 190.743 119.059C190.688 118.996 190.66 118.914 190.663 118.831V110.972H187.328V113.13C187.355 114.285 187.252 115.439 187.019 116.57C186.891 117.28 186.555 117.936 186.053 118.456C185.566 118.874 184.949 119.111 184.306 119.126C184.264 119.131 184.221 119.126 184.181 119.112C184.141 119.098 184.105 119.074 184.076 119.044C184.045 119.012 184.02 118.975 184.004 118.933C183.987 118.892 183.98 118.847 183.981 118.803V118.215C183.98 118.176 183.986 118.138 183.999 118.101C184.013 118.065 184.033 118.031 184.06 118.002C184.086 117.974 184.118 117.951 184.154 117.934C184.189 117.918 184.227 117.909 184.266 117.907C184.849 117.825 185.288 117.399 185.581 116.621C185.875 115.844 186.037 114.621 186.037 112.957V110.065C186.035 110.026 186.041 109.986 186.055 109.949C186.07 109.913 186.092 109.879 186.12 109.852C186.149 109.822 186.184 109.798 186.223 109.781C186.262 109.765 186.304 109.757 186.346 109.757H191.669C191.71 109.755 191.75 109.763 191.788 109.779C191.825 109.796 191.857 109.821 191.883 109.852C191.916 109.88 191.941 109.916 191.958 109.955C191.974 109.995 191.981 110.038 191.978 110.081V118.819C191.979 118.861 191.971 118.904 191.955 118.943C191.939 118.983 191.914 119.018 191.883 119.048C191.855 119.074 191.821 119.095 191.784 119.109C191.748 119.122 191.709 119.128 191.669 119.126L190.972 119.138ZM194.628 119.138C194.545 119.14 194.463 119.112 194.398 119.059C194.344 118.996 194.316 118.914 194.319 118.831V110.065C194.316 110.026 194.322 109.987 194.335 109.95C194.349 109.913 194.371 109.88 194.398 109.852C194.428 109.821 194.464 109.797 194.503 109.78C194.543 109.764 194.585 109.756 194.628 109.757H195.313C195.356 109.756 195.398 109.764 195.436 109.781C195.475 109.797 195.51 109.821 195.539 109.852C195.571 109.878 195.596 109.91 195.612 109.947C195.629 109.984 195.636 110.024 195.634 110.065V113.316H197.69C198.515 113.262 199.329 113.526 199.964 114.053C200.24 114.332 200.453 114.666 200.59 115.034C200.726 115.401 200.783 115.793 200.756 116.184C200.758 116.69 200.639 117.189 200.407 117.639C200.174 118.094 199.814 118.471 199.369 118.724C198.856 119.004 198.275 119.141 197.69 119.119L194.628 119.138ZM197.571 118.014C197.817 118.028 198.064 117.991 198.295 117.906C198.526 117.82 198.737 117.688 198.914 117.517C199.084 117.337 199.215 117.125 199.301 116.893C199.387 116.661 199.425 116.414 199.413 116.168C199.413 115.016 198.799 114.44 197.571 114.44H195.634V118.014H197.571ZM202.724 119.138C202.683 119.143 202.64 119.139 202.6 119.125C202.56 119.112 202.524 119.089 202.495 119.059C202.465 119.03 202.442 118.994 202.428 118.954C202.415 118.914 202.41 118.872 202.415 118.831V110.093C202.413 110.051 202.418 110.01 202.432 109.97C202.446 109.931 202.467 109.895 202.495 109.864C202.524 109.833 202.56 109.809 202.599 109.792C202.639 109.776 202.682 109.768 202.724 109.769H203.41C203.453 109.767 203.495 109.774 203.535 109.791C203.575 109.807 203.61 109.832 203.639 109.864C203.671 109.892 203.696 109.928 203.711 109.968C203.727 110.007 203.734 110.05 203.73 110.093V113.785H208.345V110.093C208.341 110.051 208.347 110.009 208.36 109.97C208.374 109.93 208.396 109.894 208.424 109.864C208.454 109.833 208.489 109.809 208.529 109.792C208.569 109.776 208.611 109.768 208.654 109.769H209.339C209.381 109.767 209.424 109.774 209.463 109.79C209.502 109.807 209.537 109.832 209.565 109.864C209.597 109.892 209.623 109.927 209.639 109.967C209.656 110.007 209.663 110.05 209.66 110.093V118.831C209.661 118.873 209.653 118.916 209.637 118.955C209.62 118.994 209.596 119.03 209.565 119.059C209.502 119.112 209.421 119.14 209.339 119.138H208.654C208.57 119.14 208.489 119.112 208.424 119.059C208.37 118.996 208.341 118.914 208.345 118.831V114.988H203.73V118.831C203.732 118.873 203.725 118.915 203.709 118.954C203.693 118.994 203.669 119.03 203.639 119.059C203.575 119.112 203.493 119.14 203.41 119.138H202.724ZM211.379 119.138C211.344 119.138 211.309 119.132 211.276 119.118C211.243 119.104 211.214 119.085 211.189 119.059C211.163 119.035 211.143 119.006 211.129 118.973C211.116 118.94 211.109 118.905 211.11 118.87C211.104 118.822 211.104 118.773 211.11 118.724L214.453 110.065C214.48 109.974 214.538 109.895 214.616 109.842C214.695 109.788 214.789 109.762 214.884 109.769H215.799C215.894 109.762 215.988 109.788 216.066 109.842C216.143 109.896 216.2 109.974 216.227 110.065L219.546 118.744L219.574 118.89C219.574 118.961 219.546 119.029 219.495 119.079C219.445 119.13 219.376 119.158 219.305 119.158H218.62C218.538 119.162 218.456 119.139 218.39 119.091C218.343 119.046 218.306 118.99 218.283 118.929L217.546 117.032H213.138L212.397 118.929C212.373 118.998 212.328 119.057 212.268 119.098C212.208 119.139 212.137 119.16 212.064 119.158L211.379 119.138ZM217.154 115.86L215.34 111.106L213.526 115.86H217.154ZM227.235 109.769C227.275 109.768 227.315 109.776 227.352 109.792C227.389 109.808 227.422 109.833 227.448 109.864C227.48 109.889 227.505 109.922 227.521 109.959C227.538 109.996 227.545 110.036 227.544 110.077V118.831C227.544 118.873 227.536 118.916 227.52 118.955C227.504 118.994 227.479 119.03 227.448 119.059C227.39 119.112 227.313 119.141 227.235 119.138H226.565C226.482 119.14 226.4 119.112 226.335 119.059C226.305 119.03 226.28 118.994 226.264 118.955C226.247 118.916 226.239 118.873 226.24 118.831V115.588H224.399L222.371 118.783C222.315 118.889 222.243 118.985 222.157 119.067C222.064 119.125 221.956 119.153 221.848 119.146H221.202C221.167 119.146 221.133 119.139 221.101 119.126C221.069 119.112 221.04 119.092 221.016 119.067C220.99 119.043 220.969 119.014 220.955 118.981C220.94 118.949 220.933 118.913 220.933 118.878C220.936 118.827 220.949 118.777 220.972 118.732L223.056 115.466C222.478 115.331 221.967 114.993 221.618 114.515C221.259 113.982 221.08 113.349 221.107 112.708C221.094 112.204 221.199 111.704 221.416 111.248C221.651 110.8 222.01 110.428 222.45 110.175C222.967 109.886 223.553 109.743 224.145 109.761L227.235 109.769ZM226.225 110.893H224.264C224.017 110.879 223.769 110.917 223.538 111.005C223.306 111.092 223.096 111.228 222.921 111.402C222.756 111.58 222.628 111.789 222.545 112.016C222.462 112.244 222.426 112.486 222.438 112.728C222.438 113.88 223.044 114.456 224.264 114.456H226.225V110.893ZM240.056 118.669C240.086 118.713 240.099 118.766 240.096 118.819C240.097 118.86 240.089 118.902 240.074 118.941C240.058 118.979 240.035 119.014 240.005 119.044C239.978 119.074 239.946 119.099 239.909 119.115C239.872 119.132 239.831 119.14 239.791 119.138H239.022C238.947 119.142 238.872 119.123 238.808 119.083C238.756 119.042 238.71 118.993 238.674 118.937L236.091 114.992H234.507V118.835C234.508 118.877 234.5 118.92 234.483 118.959C234.467 118.998 234.443 119.034 234.412 119.063C234.347 119.116 234.266 119.144 234.182 119.142H233.497C233.414 119.144 233.334 119.116 233.271 119.063C233.215 119 233.185 118.919 233.188 118.835V110.093C233.185 110.051 233.191 110.009 233.205 109.969C233.22 109.93 233.242 109.894 233.271 109.863C233.3 109.833 233.335 109.809 233.374 109.793C233.413 109.776 233.455 109.768 233.497 109.769H234.182C234.225 109.767 234.268 109.774 234.308 109.791C234.347 109.807 234.383 109.832 234.412 109.864C234.444 109.892 234.47 109.927 234.486 109.967C234.503 110.007 234.51 110.05 234.507 110.093V113.785H236.04L238.416 109.97C238.466 109.898 238.535 109.84 238.615 109.802C238.695 109.765 238.784 109.749 238.872 109.757H239.601C239.638 109.752 239.676 109.754 239.712 109.766C239.748 109.777 239.78 109.796 239.808 109.822C239.835 109.848 239.856 109.88 239.868 109.915C239.881 109.95 239.886 109.988 239.882 110.025C239.874 110.088 239.851 110.147 239.814 110.199L237.236 114.294L240.056 118.669ZM244.675 119.272C243.68 119.334 242.701 119.007 241.945 118.361C241.308 117.746 240.975 116.823 240.939 115.6V113.335C240.974 112.133 241.322 111.219 241.985 110.594C242.742 109.978 243.689 109.642 244.667 109.642C245.644 109.642 246.591 109.978 247.348 110.594C248.01 111.217 248.362 112.132 248.398 113.335C248.398 113.856 248.422 114.231 248.422 114.464C248.422 114.696 248.422 115.063 248.398 115.6C248.361 116.831 248.02 117.751 247.376 118.361C246.631 119.007 245.66 119.335 244.675 119.272ZM244.675 118.132C244.985 118.147 245.296 118.099 245.587 117.989C245.878 117.879 246.143 117.71 246.366 117.493C246.834 116.944 247.078 116.24 247.051 115.521C247.051 114.984 247.079 114.629 247.079 114.452C247.079 114.274 247.079 113.895 247.051 113.379C247.077 112.657 246.828 111.953 246.354 111.406C246.133 111.19 245.87 111.022 245.581 110.912C245.292 110.802 244.984 110.753 244.675 110.767C244.361 110.753 244.048 110.802 243.755 110.912C243.461 111.022 243.193 111.19 242.967 111.406C242.501 111.956 242.257 112.659 242.282 113.379V115.521C242.257 116.24 242.501 116.943 242.967 117.493C243.193 117.71 243.461 117.878 243.755 117.988C244.048 118.098 244.361 118.147 244.675 118.132ZM250.691 119.138C250.649 119.143 250.607 119.139 250.567 119.125C250.527 119.112 250.491 119.089 250.461 119.059C250.432 119.03 250.409 118.994 250.395 118.954C250.382 118.914 250.377 118.872 250.382 118.831V110.093C250.38 110.051 250.385 110.01 250.399 109.97C250.413 109.931 250.434 109.895 250.461 109.864C250.491 109.833 250.527 109.809 250.566 109.792C250.606 109.776 250.648 109.768 250.691 109.769H251.365C251.437 109.77 251.507 109.79 251.569 109.827C251.63 109.865 251.68 109.918 251.713 109.982L254.549 115.391L257.409 109.982C257.432 109.924 257.47 109.874 257.52 109.836C257.586 109.79 257.665 109.766 257.746 109.769H258.403C258.489 109.769 258.572 109.803 258.633 109.864C258.694 109.924 258.728 110.007 258.728 110.093V118.831C258.729 118.873 258.721 118.916 258.705 118.955C258.688 118.994 258.664 119.03 258.633 119.059C258.568 119.112 258.487 119.14 258.403 119.138H257.746C257.704 119.143 257.662 119.138 257.622 119.124C257.583 119.11 257.547 119.087 257.518 119.058C257.488 119.028 257.465 118.993 257.451 118.953C257.437 118.914 257.432 118.872 257.437 118.831V112.246L255.195 116.61C255.16 116.695 255.1 116.767 255.023 116.817C254.946 116.867 254.855 116.892 254.763 116.89H254.347C254.255 116.892 254.164 116.867 254.087 116.817C254.01 116.767 253.95 116.695 253.915 116.61L251.658 112.246V118.831C251.659 118.873 251.651 118.916 251.634 118.955C251.618 118.994 251.594 119.03 251.563 119.059C251.534 119.086 251.501 119.107 251.464 119.121C251.427 119.134 251.388 119.14 251.349 119.138H250.691ZM261.362 119.138C261.278 119.14 261.197 119.112 261.132 119.059C261.078 118.996 261.05 118.914 261.053 118.831V110.093C261.05 110.051 261.055 110.009 261.068 109.97C261.082 109.93 261.104 109.894 261.132 109.864C261.162 109.833 261.198 109.809 261.237 109.792C261.277 109.776 261.319 109.768 261.362 109.769H267.985C268.028 109.767 268.07 109.774 268.11 109.791C268.15 109.807 268.186 109.832 268.214 109.864C268.247 109.892 268.272 109.927 268.289 109.967C268.305 110.007 268.312 110.05 268.309 110.093V118.831C268.31 118.873 268.302 118.916 268.286 118.955C268.27 118.994 268.245 119.03 268.214 119.059C268.15 119.112 268.068 119.14 267.985 119.138H267.299C267.217 119.14 267.137 119.112 267.074 119.059C267.018 118.996 266.988 118.915 266.99 118.831V110.972H262.368V118.831C262.369 118.873 262.361 118.916 262.345 118.955C262.328 118.994 262.304 119.03 262.273 119.059C262.209 119.111 262.129 119.139 262.047 119.138H261.362ZM270.013 119.138C269.978 119.138 269.943 119.131 269.911 119.118C269.879 119.104 269.851 119.084 269.826 119.059C269.8 119.035 269.78 119.006 269.765 118.973C269.751 118.941 269.743 118.906 269.743 118.87C269.735 118.822 269.735 118.772 269.743 118.724L273.09 110.065C273.118 109.974 273.176 109.895 273.254 109.842C273.333 109.788 273.427 109.762 273.522 109.769H274.433C274.528 109.762 274.622 109.788 274.701 109.842C274.779 109.895 274.837 109.974 274.865 110.065L278.184 118.744L278.212 118.89C278.212 118.925 278.204 118.96 278.19 118.993C278.176 119.026 278.155 119.055 278.129 119.079C278.105 119.104 278.076 119.124 278.044 119.138C278.012 119.151 277.977 119.158 277.942 119.158H277.265C277.183 119.162 277.102 119.139 277.035 119.091C276.987 119.047 276.95 118.991 276.928 118.929L276.188 117.032H271.775L271.035 118.929C271.008 118.993 270.966 119.049 270.912 119.091C270.851 119.138 270.775 119.162 270.698 119.158L270.013 119.138ZM275.792 115.86L273.978 111.106L272.163 115.86H275.792ZM279.955 119.138C279.872 119.139 279.792 119.111 279.729 119.059C279.674 118.996 279.646 118.914 279.65 118.831V110.093C279.646 110.051 279.651 110.009 279.665 109.97C279.679 109.93 279.7 109.894 279.729 109.864C279.758 109.833 279.793 109.809 279.832 109.793C279.871 109.777 279.912 109.769 279.955 109.769H280.644C280.686 109.767 280.729 109.774 280.768 109.79C280.807 109.807 280.842 109.832 280.87 109.864C280.902 109.892 280.927 109.927 280.944 109.967C280.96 110.007 280.967 110.05 280.965 110.093V113.785H285.583V110.093C285.58 110.051 285.585 110.008 285.599 109.969C285.614 109.929 285.636 109.893 285.665 109.862C285.694 109.832 285.729 109.807 285.769 109.791C285.808 109.775 285.85 109.768 285.892 109.769H286.577C286.62 109.767 286.663 109.774 286.703 109.791C286.743 109.807 286.778 109.832 286.807 109.864C286.839 109.892 286.865 109.927 286.881 109.967C286.898 110.007 286.905 110.05 286.902 110.093V118.831C286.903 118.873 286.895 118.916 286.879 118.955C286.862 118.994 286.838 119.03 286.807 119.059C286.742 119.112 286.661 119.14 286.577 119.138H285.892C285.809 119.139 285.727 119.111 285.662 119.059C285.609 118.995 285.581 118.914 285.583 118.831V114.988H280.965V118.831C280.966 118.873 280.958 118.916 280.941 118.955C280.925 118.994 280.9 119.03 280.87 119.059C280.806 119.111 280.726 119.139 280.644 119.138H279.955ZM289.544 119.138C289.46 119.14 289.379 119.112 289.314 119.059C289.258 118.992 289.228 118.906 289.231 118.819V110.093C289.228 110.051 289.234 110.009 289.248 109.969C289.263 109.93 289.285 109.894 289.314 109.864C289.344 109.833 289.38 109.809 289.419 109.792C289.459 109.776 289.501 109.768 289.544 109.769H290.241C290.282 109.767 290.322 109.775 290.359 109.791C290.396 109.808 290.429 109.832 290.455 109.864C290.486 109.893 290.51 109.929 290.527 109.968C290.543 110.008 290.551 110.05 290.55 110.093V117.012L295.561 109.958C295.593 109.899 295.642 109.849 295.702 109.816C295.761 109.782 295.829 109.766 295.897 109.769H296.555C296.596 109.767 296.637 109.775 296.675 109.792C296.712 109.808 296.746 109.833 296.773 109.864C296.805 109.892 296.831 109.927 296.847 109.967C296.863 110.007 296.871 110.05 296.868 110.093V118.831C296.869 118.873 296.861 118.916 296.844 118.955C296.828 118.994 296.804 119.03 296.773 119.059C296.713 119.113 296.635 119.142 296.555 119.138H295.882C295.799 119.139 295.719 119.111 295.656 119.059C295.625 119.03 295.6 118.994 295.584 118.955C295.568 118.916 295.56 118.873 295.561 118.831V111.966L290.562 118.949C290.53 119.009 290.481 119.059 290.422 119.093C290.362 119.127 290.294 119.142 290.225 119.138H289.544ZM305.435 109.769C305.476 109.767 305.517 109.775 305.555 109.792C305.593 109.808 305.626 109.833 305.653 109.864C305.684 109.89 305.708 109.922 305.724 109.959C305.74 109.996 305.747 110.037 305.744 110.077V118.831C305.747 118.872 305.74 118.913 305.725 118.951C305.711 118.989 305.688 119.024 305.659 119.053C305.63 119.082 305.595 119.105 305.556 119.12C305.518 119.134 305.476 119.141 305.435 119.138H304.75C304.668 119.14 304.587 119.112 304.524 119.059C304.493 119.03 304.469 118.994 304.453 118.955C304.436 118.916 304.428 118.873 304.429 118.831V115.588H302.587L300.559 118.783C300.504 118.889 300.432 118.985 300.345 119.067C300.252 119.124 300.142 119.152 300.033 119.146H299.391C299.355 119.146 299.32 119.139 299.288 119.126C299.255 119.112 299.226 119.092 299.201 119.067C299.151 119.017 299.122 118.949 299.122 118.878C299.123 118.827 299.136 118.777 299.161 118.732L301.245 115.466C300.666 115.331 300.156 114.993 299.807 114.515C299.448 113.982 299.269 113.349 299.296 112.708C299.291 112.207 299.407 111.712 299.633 111.264C299.867 110.815 300.226 110.443 300.666 110.191C301.182 109.903 301.767 109.759 302.358 109.777L305.435 109.769ZM304.429 110.893H302.449C302.201 110.879 301.953 110.918 301.721 111.005C301.489 111.093 301.278 111.228 301.102 111.402C300.937 111.58 300.81 111.789 300.727 112.017C300.644 112.244 300.607 112.486 300.619 112.728C300.619 113.88 301.229 114.456 302.449 114.456H304.429V110.893Z" fill="white"/>
<path d="M48.7195 23.0781L16.0418 66.4727V14.7936H0V6.90369C0 2.16973 3.16875 0 8.31796 0H48.7195V23.0781ZM48.7195 91.5232V48.1286L16.0418 91.5232H48.7195ZM62.1866 76.3351L51.8882 91.5232H101.598C117.046 92.115 131.305 78.3076 130.711 64.6974V51.2846C131.305 34.9129 117.838 23.0781 101.598 23.0781H86.9425L92.8839 14.7936H130.711V8.48168C130.711 3.35322 129.324 0 123.779 0H84.3679L64.1671 27.2203C60.2062 32.3487 61.5925 38.4634 67.3358 38.4634H92.8839C99.2214 38.4634 101.277 41.8482 101.598 48.1286V68.4452C101.598 73.3764 97.2409 76.3351 92.8839 76.3351H62.1866Z" fill="#D41217"/>
<path d="M137.246 8.48168V14.7936H169.528C173.687 14.7936 177.054 21.3028 173.687 25.8395L123.779 91.5232H199.433L209.93 76.3351H173.687L202.206 38.4634C206.325 32.2659 206.515 28.889 202.206 23.0781L189.333 6.90369C185.677 1.53065 182.746 0.142019 176.262 0H144.574C138.831 0 137.246 2.56423 137.246 8.48168ZM242.211 91.5232L253.698 76.3351C243.716 75.8065 240.524 73.4987 240.429 64.6974V25.8395C240.429 19.1331 243.598 14.7936 250.529 14.7936H268.353C274.889 14.7936 277.265 18.5413 277.265 25.8395V44.9726L300.635 12.8211C293.648 3.24671 287.564 0 271.522 0H242.211C220.822 0 209.137 14.0046 209.93 35.1102V58.1882C209.93 80.4773 222.605 91.5232 242.211 91.5232ZM306.972 29.9817L261.224 91.5232H277.265C292.515 91.5232 307.765 79.4911 306.972 58.1882V29.9817Z" fill="#D41217"/>
</svg>
