<?xml version="1.0" encoding="UTF-8" standalone="no"?>
<svg
   xmlns:dc="http://purl.org/dc/elements/1.1/"
   xmlns:cc="http://creativecommons.org/ns#"
   xmlns:rdf="http://www.w3.org/1999/02/22-rdf-syntax-ns#"
   xmlns:svg="http://www.w3.org/2000/svg"
   xmlns="http://www.w3.org/2000/svg"
   viewBox="0 0 793.70135 1122.52"
   height="1122.52"
   width="793.70135"
   xml:space="preserve"
   id="svg2"
   version="1.1"><metadata
     id="metadata8"><rdf:RDF><cc:Work
         rdf:about=""><dc:format>image/svg+xml</dc:format><dc:type
           rdf:resource="http://purl.org/dc/dcmitype/StillImage" /></cc:Work></rdf:RDF></metadata><defs
     id="defs6"><linearGradient
       id="linearGradient38"
       spreadMethod="pad"
       gradientTransform="matrix(477.73999,492.94,492.94,-477.73999,112.44441,288.17673)"
       gradientUnits="userSpaceOnUse"
       y2="0"
       x2="1"
       y1="0"
       x1="0"><stop
         id="stop24"
         offset="0"
         style="stop-opacity:1;stop-color:#f5e911" /><stop
         id="stop26"
         offset="0.05"
         style="stop-opacity:1;stop-color:#f5e911" /><stop
         id="stop28"
         offset="0.05009248"
         style="stop-opacity:1;stop-color:#f5e911" /><stop
         id="stop30"
         offset="0.42"
         style="stop-opacity:1;stop-color:#f1471d" /><stop
         id="stop32"
         offset="0.89975532"
         style="stop-opacity:1;stop-color:#f5e911" /><stop
         id="stop34"
         offset="0.9"
         style="stop-opacity:1;stop-color:#f5e911" /><stop
         id="stop36"
         offset="1"
         style="stop-opacity:1;stop-color:#f5e911" /></linearGradient><clipPath
       id="clipPath48"
       clipPathUnits="userSpaceOnUse"><path
         id="path46"
         d="M 0,841.89 H 595.276 V 0 H 0 Z" /></clipPath></defs><g
     transform="matrix(1.3333333,0,0,-1.3333333,0,1122.52)"
     id="g10"><g
       id="g12"><g
         id="g14"><g
           id="g20"><g
             id="g22"><path
               id="path40"
               style="fill:url(#linearGradient38);stroke:none"
               d="M 306.651,705.974 V 687.831 H 288.508 V 669.69 651.548 h -18.141 v -18.142 h -18.142 v 18.142 h -18.141 v -18.142 h -18.143 v -18.142 h 18.143 v -18.141 h -18.143 v -18.142 h 18.143 V 560.839 H 215.941 197.8 179.658 161.517 143.374 125.232 V 542.697 H 107.091 88.95 v 18.142 H 70.807 v -36.283 h 18.143 18.141 v -18.141 h 18.141 18.142 v 18.141 h 18.143 v -18.141 h 18.141 18.142 v 18.141 h -18.142 -18.141 v 18.141 h 18.141 18.142 18.141 18.143 v -18.141 h -18.143 v -18.141 -18.143 h 18.143 v 18.143 h 18.141 v -18.143 h 18.142 18.141 v -18.141 h 18.143 v 18.141 18.143 h 18.141 v 18.141 h 18.141 v -18.141 -18.143 -18.141 h -18.141 v -18.142 -18.141 h 18.141 18.143 v 18.141 h 18.141 v 18.142 18.141 h 18.142 V 470.131 H 415.5 433.642 V 451.989 433.848 H 415.5 v -18.142 h -18.141 v 18.142 H 415.5 v 18.141 h -18.141 v -18.141 h -18.142 v -18.142 h -18.141 v -18.142 -18.142 -18.141 -18.143 h -18.143 v 18.143 18.141 18.142 h -18.141 v -18.142 -18.141 h -18.141 -18.143 v -18.143 -18.141 h 18.143 v 18.141 h 18.141 v -18.141 -18.141 h -18.141 -18.143 v -18.142 h 18.143 18.141 V 270.572 H 306.651 288.508 V 252.43 h 54.425 v 18.142 h 18.143 V 252.43 h 18.141 v 18.142 h -18.141 v 18.142 18.142 h -18.143 v -18.142 h -18.141 v 18.142 h 18.141 v 18.141 h 18.143 18.141 v -18.141 -18.142 h 18.142 v 18.142 H 415.5 v 18.141 h 18.142 18.142 v 18.141 18.143 18.141 18.142 18.142 h 18.142 v -18.142 -18.142 h 18.141 18.142 V 361.281 H 488.067 V 343.138 324.997 306.856 H 469.926 451.784 433.642 V 288.714 H 415.5 v -18.142 h 18.142 18.142 V 252.43 h 18.142 v 18.142 h 18.141 18.142 V 252.43 h 18.142 v 18.142 18.142 18.142 18.141 18.141 h -18.142 v 18.143 h 18.142 v 18.141 h -18.142 v 18.142 18.142 h 18.142 v 18.142 18.141 h -18.142 v 18.142 h 18.142 v 18.141 18.143 18.141 h -18.142 v -18.141 h -18.142 -18.141 v 18.141 h 18.141 18.142 v 18.141 h 18.142 v 18.142 h -18.142 -18.142 -18.141 v -18.142 h -18.142 v 18.142 H 433.642 V 542.697 H 415.5 v -18.141 -18.141 h -18.141 -18.142 v -18.143 h -18.141 v 18.143 h 18.141 v 18.141 h -18.141 v 18.141 18.142 18.142 h 18.141 v 18.142 18.141 18.142 18.142 h -18.141 -18.143 v -18.142 h 18.143 v -18.142 -18.141 -18.142 h -18.143 v 18.142 h -18.141 v -18.142 h -18.141 v -18.142 h 18.141 18.141 v -18.142 h -18.141 -18.141 -18.143 -18.141 v -18.141 h 18.141 18.143 v -18.141 h -18.143 -18.141 -18.142 v 18.141 18.141 h 18.142 v 18.142 h 18.141 v 18.142 h 18.143 v 18.142 18.141 18.142 h 18.141 v 18.142 h 18.141 v 18.142 h -18.141 v 18.141 18.143 z M 270.367,597.123 v 18.141 18.142 h 18.141 v -18.142 -18.141 -18.142 h -18.141 z m -36.283,0 h 18.141 v -18.142 h -18.141 z m 0,-36.284 h 18.141 V 542.697 H 234.084 Z M 415.5,506.415 h 18.142 18.142 v -18.143 h 18.142 18.141 18.142 v -18.141 h -18.142 v -18.142 h -18.141 -18.142 v 18.142 h -18.142 v 18.141 H 415.5 Z m 72.567,-72.567 h 18.141 v -18.142 h -18.141 z m -54.425,0 h 18.141 v -18.142 h -18.141 z m -54.425,-72.567 v 18.141 18.142 h 18.142 18.141 18.142 V 379.422 361.281 343.138 H 415.5 397.359 379.217 Z m 72.567,-72.567 h 18.142 v -18.142 h -18.142 z m -181.417,417.26 h -18.142 v -18.143 h -18.141 v 18.143 H 215.941 V 687.831 669.69 651.548 h 18.143 v 18.142 h 18.141 v 18.141 h 18.142 18.141 v 18.143 z m 170.348,-0.011 c -19.63,0 -36.261,-12.969 -41.578,-30.697 v 0 c -0.55,-1.833 -0.98,-3.718 -1.278,-5.644 v 0 c -0.329,-2.126 -0.5,-4.302 -0.5,-6.519 v 0 -41.235 c 0,-23.645 19.455,-42.873 43.356,-42.873 v 0 l 20.14,-0.003 20.139,0.004 c 23.901,0 43.357,19.229 43.357,42.873 v 0 41.234 c 0,23.634 -19.455,42.86 -43.357,42.86 v 0 z m -24.307,-84.095 v 41.235 c 0,4.103 1.063,7.967 2.937,11.342 v 0 c 1.803,3.247 4.354,6.04 7.426,8.154 v 0 c 3.95,2.719 8.759,4.315 13.943,4.315 v 0 h 40.28 c 13.405,0 24.308,-10.681 24.308,-23.811 v 0 -41.235 c 0,-13.136 -10.903,-23.824 -24.312,-23.824 v 0 l -20.135,-0.004 -20.135,0.005 h -0.002 c 0,0 -0.001,0 -0.001,0 v 0 c -13.41,0 -24.309,10.688 -24.309,23.823 m -302.244,84.095 c -19.631,0 -36.261,-12.969 -41.578,-30.697 v 0 c -0.55,-1.833 -0.979,-3.718 -1.278,-5.644 v 0 c -0.329,-2.126 -0.501,-4.302 -0.501,-6.519 v 0 -41.235 c 0,-23.645 19.456,-42.873 43.357,-42.873 v 0 l 20.139,-0.003 20.141,0.004 c 23.899,0 43.356,19.229 43.356,42.873 v 0 41.234 c 0,23.634 -19.455,42.86 -43.356,42.86 v 0 z M 89.856,621.868 v 41.235 c 0,4.103 1.065,7.967 2.938,11.342 v 0 c 1.803,3.247 4.354,6.04 7.426,8.154 v 0 c 3.95,2.719 8.759,4.315 13.942,4.315 v 0 h 40.282 c 13.403,0 24.307,-10.681 24.307,-23.811 v 0 -41.235 c 0,-13.136 -10.904,-23.824 -24.313,-23.824 v 0 l -20.135,-0.004 -20.134,0.005 h -0.002 c 0,0 -0.002,0 -0.002,0 v 0 c -13.408,0 -24.309,10.688 -24.309,23.823 m 271.22,47.822 h 18.141 v 18.141 h -18.141 z m 87.444,0 c -3.173,0 -6.12,-0.98 -8.539,-2.645 v 0 c -1.883,-1.291 -3.446,-3.002 -4.549,-4.992 v 0 c -1.144,-2.07 -1.798,-4.434 -1.798,-6.946 v 0 -25.252 c 0,-8.041 6.681,-14.591 14.894,-14.591 v 0 10e-4 h 12.327 12.334 c 8.206,0 14.886,6.55 14.886,14.59 v 0 25.252 c 0,8.042 -6.68,14.583 -14.886,14.583 v 0 z m -326.551,0 c -3.173,0 -6.121,-0.98 -8.539,-2.645 v 0 c -1.882,-1.291 -3.446,-3.002 -4.55,-4.992 v 0 c -1.144,-2.07 -1.796,-4.434 -1.796,-6.946 v 0 l -0.001,-25.252 c 0,-8.041 6.681,-14.591 14.894,-14.591 v 0 10e-4 h 12.326 12.335 c 8.206,0 14.886,6.55 14.886,14.59 v 0 25.252 c 0,8.042 -6.681,14.583 -14.886,14.583 v 0 z M 379.217,542.697 h 18.142 v 18.142 H 379.217 Z M 70.807,488.272 h 18.142 v 18.142 H 70.807 Z m 108.851,0 h -18.141 v -18.141 -18.142 h -18.143 v -18.141 h 18.143 v -18.142 -18.142 h 18.141 18.142 v 18.142 h -18.142 v 18.142 h 18.142 18.141 v 18.141 18.142 H 197.8 v -18.142 h -18.142 v -18.141 h -18.141 v 18.141 h 18.141 v 18.142 H 197.8 v 18.141 z m -54.426,0 V 470.131 H 107.091 V 451.989 H 88.95 v 18.142 H 70.807 V 397.564 H 88.95 v 18.142 18.142 h 18.141 v -18.142 h 18.141 v -18.142 h 18.142 v 18.142 h -18.142 v 18.142 h -18.141 v 18.141 h 18.141 18.142 v 18.142 18.141 z m 126.993,-36.283 h 18.142 v 18.142 h -18.142 z m 36.283,0 h -18.141 v -18.141 -18.142 h -18.142 -18.141 v 18.142 h -18.143 v -18.142 -18.142 -18.142 -18.141 -18.143 -18.141 -18.141 h 18.143 v -18.142 h 18.141 v -18.142 h 18.142 v 18.142 18.142 18.141 18.141 18.143 h 18.141 v 18.141 h 18.143 v 18.142 h 18.141 v 18.142 h -18.141 v -18.142 h -18.143 -18.141 v 18.142 h 18.141 v 18.142 h 18.143 v 18.141 z m -54.424,-54.425 h 18.141 v -18.142 h -18.141 z m 18.141,-18.142 h 18.142 v -18.141 h -18.142 v -18.143 -18.141 h -18.141 v 18.141 18.143 h 18.141 z M 397.359,361.281 H 415.5 v 18.141 h -18.141 z m -283.195,18.131 c -19.631,0 -36.261,-12.97 -41.578,-30.696 v 0 c -0.55,-1.834 -0.979,-3.719 -1.278,-5.645 v 0 c -0.329,-2.126 -0.501,-4.303 -0.501,-6.519 v 0 -41.236 c 0,-23.644 19.456,-42.871 43.357,-42.871 v 0 l 20.139,-0.005 20.141,0.005 c 23.899,0 43.356,19.228 43.356,42.873 v 0 41.234 c 0,23.633 -19.455,42.86 -43.356,42.86 v 0 z m 0.005,-107.918 c -13.409,0 -24.313,10.687 -24.313,23.822 v 0 41.236 c 0,4.103 1.065,7.966 2.938,11.342 v 0 c 1.803,3.247 4.354,6.04 7.426,8.154 v 0 c 3.95,2.719 8.759,4.316 13.942,4.316 v 0 l 40.282,-10e-4 c 13.403,0 24.307,-10.682 24.307,-23.811 v 0 -41.236 c 0,-13.135 -10.904,-23.823 -24.313,-23.823 v 0 l -20.135,-0.004 z m 7.8,71.644 c -3.173,0 -6.121,-0.98 -8.539,-2.644 v 0 c -1.882,-1.291 -3.446,-3.002 -4.55,-4.993 v 0 c -1.144,-2.068 -1.796,-4.432 -1.796,-6.945 v 0 l -0.001,-25.252 c 0,-8.042 6.681,-14.59 14.894,-14.59 v 0 h 12.326 12.335 c 8.206,0 14.886,6.549 14.886,14.591 v 0 25.252 c 0,8.041 -6.681,14.581 -14.886,14.581 v 0 z m 93.972,-90.708 h 18.142 v 18.141 h -18.142 z" /></g></g></g></g><g
       id="g42"><g
         clip-path="url(#clipPath48)"
         id="g44"><g
           transform="translate(80.1451,147.7814)"
           id="g50"><path
             id="path52"
             style="fill:#f1471d;fill-opacity:1;fill-rule:nonzero;stroke:none"
             d="m 0,0 c -1.785,0 -3.378,0.372 -4.78,1.115 -1.402,0.744 -2.507,1.828 -3.325,3.24 -0.818,1.413 -1.232,3.113 -1.232,5.11 0,1.763 0.308,3.261 0.924,4.483 0.616,1.221 1.434,2.22 2.443,2.995 1.009,0.775 2.124,1.37 3.346,1.795 1.222,0.425 2.454,0.733 3.707,0.924 l 9.083,1.339 c 0.063,1.487 -0.181,2.634 -0.744,3.442 -0.563,0.807 -1.37,1.37 -2.411,1.678 -1.041,0.308 -2.242,0.457 -3.601,0.457 -0.722,0 -1.498,-0.053 -2.337,-0.17 -0.84,-0.117 -1.721,-0.297 -2.645,-0.531 -0.925,-0.234 -1.891,-0.521 -2.89,-0.871 C -5.46,24.655 -6.48,24.23 -7.521,23.742 l -0.382,7.042 c 0.786,0.298 1.678,0.595 2.666,0.893 0.988,0.297 2.061,0.573 3.229,0.818 1.169,0.244 2.39,0.435 3.654,0.573 1.265,0.138 2.561,0.202 3.899,0.202 2.592,0 4.812,-0.372 6.65,-1.126 1.837,-0.754 3.24,-1.954 4.217,-3.601 0.977,-1.646 1.466,-3.792 1.466,-6.427 V 18.324 14.181 10.676 5.949 0.733 h -7.17 L 10.229,4.876 H 9.56 C 8.965,4.09 8.222,3.335 7.329,2.602 6.437,1.87 5.385,1.253 4.164,0.754 2.942,0.255 1.551,0 0,0 m 425.881,-12.269 c -2.379,0 -4.376,0.202 -5.991,0.606 -1.615,0.403 -2.889,0.966 -3.835,1.678 -0.945,0.712 -1.625,1.508 -2.029,2.39 -0.403,0.882 -0.605,1.774 -0.605,2.687 0,1.424 0.34,2.603 1.02,3.527 0.679,0.924 1.476,1.647 2.379,2.167 0.903,0.521 1.668,0.882 2.305,1.094 v 0.574 c -0.34,0.106 -0.764,0.34 -1.274,0.701 -0.51,0.361 -0.967,0.871 -1.371,1.519 -0.403,0.648 -0.605,1.466 -0.605,2.465 0,0.7 0.127,1.37 0.382,2.007 0.255,0.637 0.669,1.232 1.232,1.774 0.563,0.542 1.286,1.009 2.178,1.413 v 0.573 c -0.595,0.256 -1.275,0.638 -2.039,1.137 -0.765,0.499 -1.498,1.137 -2.21,1.923 -0.712,0.786 -1.307,1.742 -1.774,2.868 -0.467,1.126 -0.701,2.443 -0.701,3.951 0,2.019 0.499,3.814 1.498,5.386 0.998,1.572 2.475,2.815 4.429,3.729 1.955,0.913 4.366,1.37 7.234,1.37 1.126,0 2.114,-0.053 2.964,-0.17 0.85,-0.117 1.731,-0.234 2.645,-0.351 0.914,-0.116 2.05,-0.18 3.41,-0.18 h 9.082 V 26.96 h -5.832 -0.09 c 0.658,-1.344 0.983,-2.884 0.983,-4.621 0,-2.124 -0.446,-3.909 -1.349,-5.353 -0.903,-1.445 -2.135,-2.603 -3.686,-3.485 -1.551,-0.881 -3.315,-1.54 -5.291,-1.965 -1.911,-0.425 -3.324,-0.807 -4.238,-1.147 -0.913,-0.34 -1.37,-0.829 -1.37,-1.466 0,-0.467 0.191,-0.818 0.573,-1.062 0.383,-0.245 0.999,-0.414 1.838,-0.51 0.839,-0.096 1.923,-0.149 3.261,-0.149 h 1.307 c 2.783,0 5.13,-0.234 7.032,-0.712 1.901,-0.477 3.346,-1.285 4.334,-2.421 0.988,-1.137 1.477,-2.709 1.477,-4.706 0,-2.082 -0.51,-3.856 -1.53,-5.333 -1.02,-1.476 -2.38,-2.677 -4.09,-3.601 -1.71,-0.924 -3.58,-1.604 -5.598,-2.039 -2.018,-0.436 -4.036,-0.659 -6.055,-0.659 m 0.956,6.023 c 1.955,0 3.58,0.255 4.865,0.754 1.286,0.499 2.252,1.073 2.901,1.732 0.648,0.658 0.966,1.232 0.966,1.72 0,0.574 -0.202,1.073 -0.605,1.498 -0.404,0.425 -1.137,0.755 -2.21,0.978 -1.073,0.223 -2.634,0.329 -4.674,0.329 h -1.051 c -0.978,-0.042 -1.955,-0.223 -2.943,-0.542 -0.988,-0.319 -1.816,-0.754 -2.475,-1.306 -0.659,-0.553 -0.988,-1.18 -0.988,-1.881 0,-0.403 0.117,-0.807 0.351,-1.211 0.233,-0.403 0.594,-0.754 1.083,-1.062 0.489,-0.308 1.137,-0.552 1.933,-0.733 0.797,-0.18 1.743,-0.276 2.847,-0.276 m -0.956,23.009 c 0.595,0.085 1.243,0.233 1.944,0.435 0.701,0.202 1.371,0.489 1.997,0.871 0.627,0.383 1.137,0.871 1.53,1.466 0.393,0.595 0.584,1.307 0.584,2.135 0,1.169 -0.297,2.125 -0.892,2.868 -0.595,0.744 -1.339,1.296 -2.242,1.657 -0.902,0.362 -1.827,0.542 -2.761,0.542 -0.956,0 -1.859,-0.18 -2.709,-0.542 -0.85,-0.361 -1.551,-0.892 -2.103,-1.593 -0.553,-0.701 -0.829,-1.551 -0.829,-2.549 0,-0.999 0.266,-1.859 0.786,-2.582 0.52,-0.722 1.19,-1.306 2.018,-1.763 0.829,-0.457 1.721,-0.776 2.677,-0.945 M 388.947,0.733 v 6.66 7.171 3.187 7.297 7.425 l 6.883,0.415 0.318,-6.055 h 0.702 c 0.849,1.806 1.795,3.176 2.836,4.1 1.041,0.924 2.114,1.551 3.208,1.88 1.094,0.33 2.114,0.489 3.07,0.489 0.51,0 1.073,-0.043 1.678,-0.128 0.606,-0.085 1.169,-0.233 1.7,-0.446 l -0.733,-7.935 c -0.765,0.106 -1.455,0.192 -2.082,0.245 -0.627,0.053 -1.328,0.074 -2.093,0.074 -0.595,0 -1.232,-0.074 -1.912,-0.223 -0.68,-0.149 -1.349,-0.436 -2.008,-0.871 -0.658,-0.436 -1.285,-1.073 -1.88,-1.902 -0.595,-0.828 -1.126,-1.912 -1.593,-3.25 V 14.149 7.351 0.733 Z m -23.328,-0.797 c -2.804,0 -5.247,0.457 -7.33,1.36 -2.082,0.903 -3.813,2.135 -5.194,3.707 -1.381,1.573 -2.411,3.368 -3.091,5.386 -0.68,2.018 -1.02,4.132 -1.02,6.342 0,3.165 0.637,6.001 1.912,8.498 1.275,2.496 3.145,4.461 5.598,5.906 2.454,1.445 5.439,2.167 8.966,2.167 2.719,0 5.109,-0.414 7.159,-1.254 2.05,-0.839 3.772,-2.018 5.163,-3.526 1.391,-1.509 2.433,-3.261 3.134,-5.269 0.701,-2.008 1.051,-4.185 1.051,-6.522 0,-3.187 -0.637,-6.045 -1.922,-8.573 -1.286,-2.528 -3.155,-4.525 -5.598,-6.001 -2.444,-1.477 -5.386,-2.221 -8.828,-2.221 m -0.032,6.693 c 1.827,0 3.346,0.488 4.547,1.455 1.2,0.966 2.092,2.21 2.687,3.739 0.595,1.53 0.893,3.165 0.893,4.908 0,2.039 -0.33,3.803 -0.999,5.279 -0.669,1.477 -1.625,2.613 -2.857,3.41 -1.233,0.797 -2.667,1.19 -4.303,1.19 -1.805,0 -3.324,-0.436 -4.567,-1.318 -1.243,-0.881 -2.178,-2.071 -2.805,-3.558 -0.627,-1.487 -0.945,-3.155 -0.945,-5.003 0,-1.743 0.308,-3.378 0.924,-4.908 0.616,-1.529 1.551,-2.773 2.794,-3.739 1.243,-0.967 2.783,-1.455 4.631,-1.455 m -26.036,-6.693 c -1.083,0 -2.029,0.234 -2.836,0.691 -0.807,0.457 -1.423,1.083 -1.848,1.88 -0.425,0.797 -0.638,1.689 -0.638,2.688 0,1.508 0.489,2.74 1.456,3.696 0.966,0.956 2.262,1.434 3.898,1.434 1.126,0 2.093,-0.212 2.89,-0.648 0.796,-0.435 1.401,-1.041 1.826,-1.816 0.425,-0.776 0.638,-1.668 0.638,-2.666 0,-1.509 -0.468,-2.762 -1.413,-3.761 -0.946,-0.998 -2.273,-1.498 -3.973,-1.498 M 299.43,-11.759 v 6.788 7.297 15.425 7.297 7.425 l 7.234,0.415 0.223,-4.271 h 0.701 c 0.637,0.935 1.423,1.764 2.348,2.475 0.924,0.712 1.975,1.254 3.165,1.636 1.19,0.383 2.496,0.574 3.92,0.574 2.825,0 5.215,-0.722 7.17,-2.178 1.954,-1.455 3.431,-3.441 4.43,-5.959 0.998,-2.518 1.498,-5.354 1.498,-8.498 0,-2.953 -0.468,-5.704 -1.403,-8.254 -0.935,-2.549 -2.369,-4.599 -4.302,-6.15 -1.933,-1.551 -4.366,-2.327 -7.298,-2.327 -1.338,0 -2.549,0.181 -3.643,0.531 -1.094,0.351 -2.093,0.85 -2.985,1.509 -0.892,0.658 -1.7,1.455 -2.422,2.39 h -0.542 v -2.454 -6.798 -6.618 z m 14.754,18.674 c 1.764,0 3.219,0.468 4.356,1.392 1.136,0.924 1.965,2.114 2.496,3.58 0.531,1.466 0.797,3.038 0.797,4.716 0,1.764 -0.277,3.378 -0.84,4.833 -0.562,1.456 -1.412,2.624 -2.549,3.506 -1.136,0.882 -2.581,1.317 -4.323,1.317 -0.871,0 -1.711,-0.127 -2.518,-0.393 -0.807,-0.265 -1.561,-0.648 -2.262,-1.147 -0.701,-0.5 -1.307,-1.115 -1.817,-1.838 V 10.994 c 0.489,-0.828 1.052,-1.55 1.689,-2.167 0.638,-0.616 1.371,-1.083 2.199,-1.412 0.829,-0.33 1.753,-0.5 2.772,-0.5 m -41.81,-6.979 c -3.251,0 -5.672,0.956 -7.276,2.858 -1.605,1.901 -2.412,4.706 -2.412,8.424 v 3.664 3.187 5.449 4.526 4.429 l 8.095,0.255 v -6.734 -6.969 -5.481 c 0,-2.082 0.361,-3.654 1.072,-4.717 0.712,-1.062 1.987,-1.593 3.835,-1.593 1.041,0 2.008,0.223 2.89,0.659 0.881,0.435 1.678,1.019 2.4,1.752 0.723,0.733 1.381,1.551 1.976,2.465 v 6.915 6.841 6.607 h 8.094 v -6.734 -7.67 -3.505 -7.171 -6.66 h -6.883 l -0.319,5.258 h -0.733 c -0.701,-1.02 -1.561,-1.986 -2.581,-2.91 -1.02,-0.924 -2.21,-1.679 -3.569,-2.263 -1.36,-0.584 -2.889,-0.882 -4.589,-0.882 m -32.378,0 c -2.804,0 -5.247,0.457 -7.329,1.36 -2.082,0.903 -3.814,2.135 -5.195,3.707 -1.381,1.573 -2.411,3.368 -3.091,5.386 -0.68,2.018 -1.02,4.132 -1.02,6.342 0,3.165 0.637,6.001 1.912,8.498 1.275,2.496 3.145,4.461 5.598,5.906 2.454,1.445 5.439,2.167 8.966,2.167 2.719,0 5.109,-0.414 7.159,-1.254 2.051,-0.839 3.771,-2.018 5.163,-3.526 1.391,-1.509 2.433,-3.261 3.134,-5.269 0.701,-2.008 1.051,-4.185 1.051,-6.522 0,-3.187 -0.637,-6.045 -1.922,-8.573 -1.286,-2.528 -3.155,-4.525 -5.599,-6.001 -2.443,-1.477 -5.385,-2.221 -8.827,-2.221 m -0.032,6.693 c 1.827,0 3.346,0.488 4.547,1.455 1.2,0.966 2.092,2.21 2.687,3.739 0.595,1.53 0.893,3.165 0.893,4.908 0,2.039 -0.33,3.803 -0.999,5.279 -0.669,1.477 -1.625,2.613 -2.857,3.41 -1.232,0.797 -2.667,1.19 -4.303,1.19 -1.805,0 -3.324,-0.436 -4.567,-1.318 -1.243,-0.881 -2.178,-2.071 -2.805,-3.558 -0.626,-1.487 -0.945,-3.155 -0.945,-5.003 0,-1.743 0.308,-3.378 0.924,-4.908 0.616,-1.529 1.551,-2.773 2.794,-3.739 1.243,-0.967 2.783,-1.455 4.631,-1.455 M 200.193,0.733 v 6.66 7.171 3.187 7.297 7.425 l 6.884,0.415 0.318,-6.055 h 0.702 c 0.849,1.806 1.795,3.176 2.836,4.1 1.041,0.924 2.114,1.551 3.208,1.88 1.094,0.33 2.114,0.489 3.07,0.489 0.51,0 1.073,-0.043 1.678,-0.128 0.605,-0.085 1.168,-0.233 1.7,-0.446 l -0.733,-7.935 c -0.765,0.106 -1.456,0.192 -2.082,0.245 -0.627,0.053 -1.328,0.074 -2.093,0.074 -0.595,0 -1.232,-0.074 -1.912,-0.223 -0.68,-0.149 -1.349,-0.436 -2.008,-0.871 -0.658,-0.436 -1.285,-1.073 -1.88,-1.902 -0.595,-0.828 -1.126,-1.912 -1.593,-3.25 V 14.149 7.351 0.733 Z m -23.932,-13.002 c -2.38,0 -4.377,0.202 -5.992,0.606 -1.614,0.403 -2.889,0.966 -3.834,1.678 -0.946,0.712 -1.626,1.508 -2.029,2.39 -0.404,0.882 -0.606,1.774 -0.606,2.687 0,1.424 0.34,2.603 1.02,3.527 0.68,0.924 1.477,1.647 2.38,2.167 0.902,0.521 1.667,0.882 2.305,1.094 v 0.574 c -0.34,0.106 -0.765,0.34 -1.275,0.701 -0.51,0.361 -0.967,0.871 -1.37,1.519 -0.404,0.648 -0.606,1.466 -0.606,2.465 0,0.7 0.128,1.37 0.383,2.007 0.254,0.637 0.669,1.232 1.232,1.774 0.563,0.542 1.285,1.009 2.177,1.413 v 0.573 c -0.594,0.256 -1.274,0.638 -2.039,1.137 -0.765,0.499 -1.498,1.137 -2.21,1.923 -0.711,0.786 -1.306,1.742 -1.774,2.868 -0.467,1.126 -0.701,2.443 -0.701,3.951 0,2.019 0.499,3.814 1.498,5.386 0.999,1.572 2.475,2.815 4.43,3.729 1.954,0.913 4.366,1.37 7.234,1.37 1.126,0 2.114,-0.053 2.963,-0.17 0.85,-0.117 1.732,-0.234 2.645,-0.351 0.914,-0.116 2.05,-0.18 3.41,-0.18 h 9.083 V 26.96 h -5.832 -0.09 c 0.658,-1.344 0.982,-2.884 0.982,-4.621 0,-2.124 -0.446,-3.909 -1.349,-5.353 -0.903,-1.445 -2.135,-2.603 -3.686,-3.485 -1.551,-0.881 -3.314,-1.54 -5.29,-1.965 -1.912,-0.425 -3.325,-0.807 -4.238,-1.147 -0.914,-0.34 -1.371,-0.829 -1.371,-1.466 0,-0.467 0.191,-0.818 0.574,-1.062 0.382,-0.245 0.998,-0.414 1.837,-0.51 0.84,-0.096 1.923,-0.149 3.262,-0.149 h 1.306 c 2.783,0 5.131,-0.234 7.032,-0.712 1.902,-0.477 3.347,-1.285 4.335,-2.421 0.987,-1.137 1.476,-2.709 1.476,-4.706 0,-2.082 -0.51,-3.856 -1.53,-5.333 -1.019,-1.476 -2.379,-2.677 -4.089,-3.601 -1.711,-0.924 -3.58,-1.604 -5.598,-2.039 -2.019,-0.436 -4.037,-0.659 -6.055,-0.659 m 0.956,6.023 c 1.954,0 3.579,0.255 4.865,0.754 1.285,0.499 2.252,1.073 2.9,1.732 0.648,0.658 0.966,1.232 0.966,1.72 0,0.574 -0.201,1.073 -0.605,1.498 -0.404,0.425 -1.137,0.755 -2.21,0.978 -1.072,0.223 -2.634,0.329 -4.673,0.329 h -1.052 c -0.977,-0.042 -1.955,-0.223 -2.942,-0.542 -0.989,-0.319 -1.817,-0.754 -2.476,-1.306 -0.658,-0.553 -0.988,-1.18 -0.988,-1.881 0,-0.403 0.117,-0.807 0.351,-1.211 0.234,-0.403 0.595,-0.754 1.084,-1.062 0.488,-0.308 1.136,-0.552 1.933,-0.733 0.797,-0.18 1.742,-0.276 2.847,-0.276 m -0.956,23.009 c 0.594,0.085 1.242,0.233 1.943,0.435 0.702,0.202 1.371,0.489 1.998,0.871 0.626,0.383 1.136,0.871 1.529,1.466 0.393,0.595 0.585,1.307 0.585,2.135 0,1.169 -0.298,2.125 -0.893,2.868 -0.595,0.744 -1.338,1.296 -2.241,1.657 -0.903,0.362 -1.827,0.542 -2.762,0.542 -0.956,0 -1.859,-0.18 -2.709,-0.542 -0.85,-0.361 -1.551,-0.892 -2.103,-1.593 -0.553,-0.701 -0.829,-1.551 -0.829,-2.549 0,-0.999 0.266,-1.859 0.786,-2.582 0.521,-0.722 1.19,-1.306 2.019,-1.763 0.828,-0.457 1.721,-0.776 2.677,-0.945 m -38.943,-0.478 v 7.074 h 5.28 4.759 4.78 5.258 v -7.074 h -5.258 -4.78 -4.759 z M 112.238,0.733 v 6.66 7.171 3.187 7.297 7.425 l 6.884,0.415 0.318,-6.055 h 0.702 c 0.849,1.806 1.795,3.176 2.836,4.1 1.041,0.924 2.113,1.551 3.208,1.88 1.094,0.33 2.114,0.489 3.07,0.489 0.509,0 1.072,-0.043 1.678,-0.128 0.605,-0.085 1.168,-0.233 1.7,-0.446 l -0.733,-7.935 c -0.765,0.106 -1.456,0.192 -2.083,0.245 -0.626,0.053 -1.327,0.074 -2.092,0.074 -0.595,0 -1.232,-0.074 -1.912,-0.223 -0.68,-0.149 -1.349,-0.436 -2.008,-0.871 -0.658,-0.436 -1.285,-1.073 -1.88,-1.902 -0.595,-0.828 -1.126,-1.912 -1.593,-3.25 V 14.149 7.351 0.733 Z M 88.911,-0.064 c -2.804,0 -5.248,0.457 -7.33,1.36 -2.082,0.903 -3.813,2.135 -5.194,3.707 -1.381,1.573 -2.411,3.368 -3.091,5.386 -0.68,2.018 -1.02,4.132 -1.02,6.342 0,3.165 0.637,6.001 1.912,8.498 1.275,2.496 3.144,4.461 5.598,5.906 2.454,1.445 5.439,2.167 8.966,2.167 2.719,0 5.109,-0.414 7.159,-1.254 2.05,-0.839 3.771,-2.018 5.163,-3.526 1.391,-1.509 2.432,-3.261 3.133,-5.269 0.701,-2.008 1.052,-4.185 1.052,-6.522 0,-3.187 -0.637,-6.045 -1.923,-8.573 C 102.051,5.63 100.181,3.633 97.738,2.157 95.295,0.68 92.353,-0.064 88.911,-0.064 m -0.032,6.693 c 1.827,0 3.346,0.488 4.547,1.455 1.2,0.966 2.092,2.21 2.687,3.739 0.595,1.53 0.892,3.165 0.892,4.908 0,2.039 -0.329,3.803 -0.998,5.279 -0.669,1.477 -1.625,2.613 -2.858,3.41 -1.232,0.797 -2.666,1.19 -4.302,1.19 -1.806,0 -3.325,-0.436 -4.567,-1.318 -1.243,-0.881 -2.178,-2.071 -2.805,-3.558 -0.627,-1.487 -0.945,-3.155 -0.945,-5.003 0,-1.743 0.308,-3.378 0.924,-4.908 0.616,-1.529 1.551,-2.773 2.794,-3.739 1.243,-0.967 2.783,-1.455 4.631,-1.455 M 57.776,0.064 c -3.548,0 -6.554,0.722 -9.029,2.156 -2.475,1.434 -4.355,3.389 -5.641,5.875 -1.285,2.485 -1.933,5.311 -1.933,8.476 0,3.187 0.606,6.045 1.817,8.562 1.211,2.518 3.006,4.504 5.375,5.959 2.369,1.456 5.3,2.178 8.806,2.178 1.253,0 2.496,-0.096 3.728,-0.287 1.232,-0.191 2.401,-0.457 3.495,-0.807 1.094,-0.351 2.061,-0.765 2.911,-1.232 l -0.638,-7.075 c -1.211,0.68 -2.316,1.2 -3.325,1.561 -1.009,0.362 -1.943,0.606 -2.793,0.733 -0.85,0.128 -1.615,0.192 -2.295,0.192 -2.677,0 -4.812,-0.861 -6.416,-2.582 -1.604,-1.72 -2.411,-4.047 -2.411,-6.979 0,-1.933 0.382,-3.643 1.147,-5.141 0.765,-1.498 1.901,-2.677 3.399,-3.537 1.498,-0.861 3.357,-1.296 5.588,-1.296 0.828,0 1.657,0.074 2.486,0.223 0.828,0.148 1.646,0.382 2.453,0.69 0.808,0.308 1.583,0.701 2.327,1.19 L 67.305,1.848 C 66.582,1.509 65.754,1.211 64.808,0.945 63.863,0.68 62.801,0.467 61.632,0.308 60.464,0.149 59.179,0.064 57.776,0.064 M 26.068,0.733 v 6.66 7.171 17.623 7.733 7.499 l 8.094,0.765 V 40.462 32.187 14.564 7.393 0.733 Z M 2.932,6.342 c 0.892,0 1.774,0.212 2.645,0.637 0.871,0.425 1.689,1.02 2.443,1.785 0.754,0.765 1.392,1.678 1.923,2.74 v 5.004 C 9.666,16.316 9.305,16.146 8.849,15.987 8.392,15.828 7.712,15.647 6.82,15.456 5.927,15.265 4.674,15.02 3.059,14.723 2.146,14.553 1.381,14.266 0.754,13.863 0.127,13.459 -0.361,12.938 -0.701,12.301 c -0.34,-0.637 -0.51,-1.37 -0.51,-2.199 0,-1.381 0.425,-2.347 1.264,-2.911 C 0.892,6.629 1.848,6.342 2.932,6.342" /></g></g></g></g></svg>