<?xml version="1.0" encoding="UTF-8" standalone="no"?>
<svg
   xmlns:dc="http://purl.org/dc/elements/1.1/"
   xmlns:cc="http://creativecommons.org/ns#"
   xmlns:rdf="http://www.w3.org/1999/02/22-rdf-syntax-ns#"
   xmlns:svg="http://www.w3.org/2000/svg"
   xmlns="http://www.w3.org/2000/svg"
   viewBox="0 0 720.11865 488.19199"
   height="488.19199"
   width="720.11865"
   xml:space="preserve"
   id="svg2"
   version="1.1"><metadata
     id="metadata8"><rdf:RDF><cc:Work
         rdf:about=""><dc:format>image/svg+xml</dc:format><dc:type
           rdf:resource="http://purl.org/dc/dcmitype/StillImage" /></cc:Work></rdf:RDF></metadata><defs
     id="defs6"><clipPath
       id="clipPath18"
       clipPathUnits="userSpaceOnUse"><path
         id="path16"
         d="M 0,366.144 H 540.089 V 0 H 0 Z" /></clipPath><linearGradient
       id="linearGradient50"
       spreadMethod="pad"
       gradientTransform="matrix(-260.83994,269.14005,269.14005,260.83994,515.35077,77.77803)"
       gradientUnits="userSpaceOnUse"
       y2="0"
       x2="1"
       y1="0"
       x1="0"><stop
         id="stop36"
         offset="0"
         style="stop-opacity:1;stop-color:#f5e911" /><stop
         id="stop38"
         offset="0.05"
         style="stop-opacity:1;stop-color:#f5e911" /><stop
         id="stop40"
         offset="0.05009248"
         style="stop-opacity:1;stop-color:#f5e911" /><stop
         id="stop42"
         offset="0.42"
         style="stop-opacity:1;stop-color:#f1471d" /><stop
         id="stop44"
         offset="0.89975532"
         style="stop-opacity:1;stop-color:#f5e911" /><stop
         id="stop46"
         offset="0.9"
         style="stop-opacity:1;stop-color:#f5e911" /><stop
         id="stop48"
         offset="1"
         style="stop-opacity:1;stop-color:#f5e911" /></linearGradient></defs><g
     transform="matrix(1.3333333,0,0,-1.3333333,0,488.192)"
     id="g10"><g
       id="g12"><g
         clip-path="url(#clipPath18)"
         id="g14"><g
           transform="translate(0,364.1443)"
           id="g20"><path
             id="path22"
             style="fill:#f1471d;fill-opacity:1;fill-rule:evenodd;stroke:none"
             d="M 0,0 H 414.227 C 313.69,-0.024 232.201,-81.528 232.201,-182.07 c 0,-100.557 81.513,-182.071 182.069,-182.071 v -0.003 H 0 Z" /></g></g></g><g
       id="g24"><g
         id="g26"><g
           id="g32"><g
             id="g34"><path
               id="path52"
               style="fill:url(#linearGradient50);stroke:none"
               d="m 326.719,269.626 c -22.407,-22.403 -36.267,-53.361 -36.267,-87.552 v 0 c 0,-16.362 3.271,-32.435 9.446,-47.346 v 0 c 6.188,-14.943 15.253,-28.639 26.821,-40.206 v 0 c 3.949,-3.95 10.355,-3.95 14.304,0 v 0 c 3.949,3.949 3.949,10.355 0,14.303 v 0 c -9.753,9.753 -17.347,21.185 -22.476,33.569 v 0 c -5.141,12.416 -7.864,25.885 -7.864,39.68 v 0 c 0,28.606 11.594,54.504 30.34,73.249 v 0 c 18.744,18.745 44.642,30.34 73.249,30.34 v 0 c 28.605,0 54.504,-11.595 73.248,-30.34 v 0 c 18.743,-18.745 30.339,-44.644 30.339,-73.249 v 0 c 0,-13.795 -2.722,-27.264 -7.864,-39.68 v 0 C 504.867,130.01 497.272,118.578 487.52,108.825 v 0 c -3.949,-3.948 -3.949,-10.354 0,-14.303 v 0 c 3.948,-3.95 10.355,-3.95 14.304,0 v 0 c 11.567,11.567 20.631,25.263 26.821,40.206 v 0 c 6.174,14.911 9.444,30.984 9.444,47.346 v 0 c 0,34.19 -13.859,65.146 -36.265,87.552 v 0 c -22.404,22.408 -53.362,36.266 -87.552,36.266 v 0 c -34.192,0 -65.149,-13.858 -87.553,-36.266 m 28.764,-28.763 c -15.043,-15.046 -24.35,-35.832 -24.35,-58.789 v 0 c 0,-10.968 2.198,-21.758 6.348,-31.778 v 0 c 4.166,-10.055 10.25,-19.256 18.004,-27.01 v 0 c 3.949,-3.949 10.355,-3.949 14.303,0 v 0 c 3.95,3.949 3.95,10.355 0,14.304 v 0 c -5.938,5.938 -10.553,12.877 -13.657,20.372 v 0 c -3.118,7.527 -4.768,15.712 -4.768,24.112 v 0 c 0,17.371 7.041,33.1 18.425,44.484 v 0 c 11.384,11.383 27.112,18.425 44.484,18.425 v 0 c 17.373,0 33.1,-7.042 44.483,-18.425 v 0 c 11.382,-11.384 18.424,-27.113 18.424,-44.484 v 0 c 0,-8.4 -1.65,-16.585 -4.767,-24.112 v 0 c -3.103,-7.495 -7.719,-14.433 -13.657,-20.372 v 0 c -3.949,-3.949 -3.949,-10.355 0,-14.304 v 0 c 3.949,-3.949 10.356,-3.949 14.304,0 v 0 c 7.753,7.755 13.839,16.956 18.003,27.01 v 0 c 4.149,10.02 6.347,20.81 6.347,31.778 v 0 c 0,22.957 -9.307,43.743 -24.35,58.789 v 0 c -15.045,15.043 -35.83,24.349 -58.787,24.349 v 0 c -22.957,0 -43.745,-9.307 -58.789,-24.349 m 30.531,-30.491 -0.066,-0.065 c -7.227,-7.258 -11.698,-17.241 -11.698,-28.233 v 0 c 0,-11.049 4.482,-21.056 11.723,-28.297 v 0 l 0.653,-0.598 c 4.853,-4.641 10.859,-8.077 17.531,-9.826 v 0 -74.982 c 0,-5.586 4.528,-10.115 10.115,-10.115 v 0 c 5.586,0 10.115,4.529 10.115,10.115 v 0 74.976 c 6.985,1.82 13.231,5.479 18.182,10.43 v 0 c 7.24,7.241 11.722,17.248 11.722,28.297 v 0 c 0,11.014 -4.488,21.015 -11.743,28.278 v 0 l 0.021,0.02 c -7.242,7.242 -17.249,11.724 -28.299,11.724 v 0 c -11.003,0 -20.995,-4.481 -28.256,-11.724 m 14.686,-42.743 -0.423,0.452 c -3.581,3.58 -5.797,8.529 -5.797,13.993 v 0 c 0,5.492 2.201,10.441 5.756,13.995 v 0 l 0.041,0.04 c 3.553,3.555 8.502,5.756 13.993,5.756 v 0 c 5.466,0 10.414,-2.216 13.994,-5.796 v 0 l 0.021,0.02 0.02,-0.02 c 3.555,-3.554 5.756,-8.503 5.756,-13.995 v 0 c 0,-5.464 -2.216,-10.413 -5.797,-13.993 v 0 c -3.58,-3.581 -8.527,-5.797 -13.992,-5.797 v 0 h -0.002 c -5.277,0 -10.051,2.033 -13.57,5.345" /></g></g></g></g></g></svg>