<?xml version="1.0" encoding="UTF-8" standalone="no"?>
<svg
   xmlns:dc="http://purl.org/dc/elements/1.1/"
   xmlns:cc="http://creativecommons.org/ns#"
   xmlns:rdf="http://www.w3.org/1999/02/22-rdf-syntax-ns#"
   xmlns:svg="http://www.w3.org/2000/svg"
   xmlns="http://www.w3.org/2000/svg"
   viewBox="0 0 687.32135 488.19199"
   height="488.19199"
   width="687.32135"
   xml:space="preserve"
   id="svg2"
   version="1.1"><metadata
     id="metadata8"><rdf:RDF><cc:Work
         rdf:about=""><dc:format>image/svg+xml</dc:format><dc:type
           rdf:resource="http://purl.org/dc/dcmitype/StillImage" /></cc:Work></rdf:RDF></metadata><defs
     id="defs6"><clipPath
       id="clipPath18"
       clipPathUnits="userSpaceOnUse"><path
         id="path16"
         d="M 0,366.144 H 515.491 V 0 H 0 Z" /></clipPath><linearGradient
       id="linearGradient50"
       spreadMethod="pad"
       gradientTransform="matrix(-209.02003,235.83002,235.83002,209.02003,496.55432,90.59668)"
       gradientUnits="userSpaceOnUse"
       y2="0"
       x2="1"
       y1="0"
       x1="0"><stop
         id="stop36"
         offset="0"
         style="stop-opacity:1;stop-color:#f5e911" /><stop
         id="stop38"
         offset="0.05"
         style="stop-opacity:1;stop-color:#f5e911" /><stop
         id="stop40"
         offset="0.05009248"
         style="stop-opacity:1;stop-color:#f5e911" /><stop
         id="stop42"
         offset="0.42"
         style="stop-opacity:1;stop-color:#f1471d" /><stop
         id="stop44"
         offset="0.89975532"
         style="stop-opacity:1;stop-color:#f5e911" /><stop
         id="stop46"
         offset="0.9"
         style="stop-opacity:1;stop-color:#f5e911" /><stop
         id="stop48"
         offset="1"
         style="stop-opacity:1;stop-color:#f5e911" /></linearGradient></defs><g
     transform="matrix(1.3333333,0,0,-1.3333333,0,488.192)"
     id="g10"><g
       id="g12"><g
         clip-path="url(#clipPath18)"
         id="g14"><g
           transform="translate(0,364.1443)"
           id="g20"><path
             id="path22"
             style="fill:#f1471d;fill-opacity:1;fill-rule:evenodd;stroke:none"
             d="M 0,0 H 414.27 V -0.001 C 313.715,-0.003 232.203,-81.516 232.203,-182.072 c 0,-100.556 81.512,-182.069 182.067,-182.071 v -0.001 H 0 Z" /></g></g></g><g
       id="g24"><g
         id="g26"><g
           id="g32"><g
             id="g34"><path
               id="path52"
               style="fill:url(#linearGradient50);stroke:none"
               d="m 345.608,280.455 c -18.356,-7.633 -30.552,-19.348 -30.552,-35.696 v 0 -123.628 c 0,-12.02 4.809,-22.441 12.575,-30.207 v 0 l 0.019,0.021 c 7.802,-7.793 18.613,-12.83 30.434,-13.97 v 0 c 0.419,-0.051 0.847,-0.076 1.28,-0.075 v 0 c 5.564,0.021 10.058,4.55 10.036,10.115 v 0 l -0.232,33.921 c -0.021,5.564 -4.55,10.058 -10.115,10.036 v 0 c -5.565,-0.021 -10.058,-4.55 -10.037,-10.115 v 0 l 0.142,-20.796 c -2.72,1.338 -5.165,3.069 -7.224,5.127 v 0 l -0.02,0.02 0.02,0.021 c -4.105,4.105 -6.648,9.594 -6.648,15.902 v 0 123.628 c 0,6.779 7.213,12.532 18.067,17.046 v 0 c 16.069,6.683 38.929,9.891 60.921,9.891 v 0 c 21.991,0 44.851,-3.208 60.92,-9.891 v 0 c 10.855,-4.514 18.067,-10.267 18.067,-17.046 v 0 -123.628 c 0,-6.601 -2.708,-12.609 -7.069,-16.97 v 0 c -1.967,-1.967 -4.269,-3.598 -6.809,-4.795 v 0 l 0.149,21.491 c 0.021,5.565 -4.473,10.094 -10.037,10.115 v 0 c -5.565,0.022 -10.094,-4.472 -10.115,-10.036 v 0 l -0.227,-33.002 c -0.03,-0.316 -0.046,-0.635 -0.046,-0.958 v 0 c 0,-5.586 4.529,-10.115 10.115,-10.115 v 0 c 12.184,0 23.255,4.978 31.273,12.996 v 0 c 8.018,8.017 12.996,19.089 12.996,31.274 v 0 123.628 c 0,16.348 -12.196,28.063 -30.553,35.696 v 0 c -18.637,7.749 -44.338,11.471 -68.664,11.471 v 0 c -24.327,0 -50.029,-3.722 -68.666,-11.471 m 48.07,-21.917 c -5.586,0 -10.115,-4.529 -10.115,-10.115 v 0 c 0,-5.587 4.529,-10.116 10.115,-10.116 v 0 h 41.191 c 5.586,0 10.114,4.529 10.114,10.116 v 0 c 0,5.586 -4.528,10.115 -10.114,10.115 v 0 z m -28.402,-31.679 c -4.494,0 -8.571,-1.832 -11.519,-4.78 v 0 c -0.301,-0.301 -0.579,-0.616 -0.834,-0.944 v 0 c -2.455,-2.862 -3.946,-6.56 -3.946,-10.574 v 0 -43.93 c 0,-4.492 1.831,-8.572 4.78,-11.521 v 0 c 2.948,-2.948 7.025,-4.779 11.519,-4.779 v 0 h 97.995 c 4.495,0 8.572,1.831 11.52,4.779 v 0 c 2.948,2.949 4.779,7.029 4.779,11.521 v 0 43.93 c 0,4.459 -1.84,8.53 -4.799,11.498 v 0 l 0.02,0.02 c -2.948,2.948 -7.025,4.78 -11.52,4.78 v 0 z m 3.931,-20.231 H 459.34 V 170.56 h -90.133 z m 24.471,-111.46 c -5.586,0 -10.115,-4.529 -10.115,-10.115 v 0 c 0,-5.587 4.529,-10.115 10.115,-10.115 v 0 h 41.191 c 5.586,0 10.114,4.528 10.114,10.115 v 0 c 0,5.586 -4.528,10.115 -10.114,10.115 v 0 z" /></g></g></g></g></g></svg>