<?xml version="1.0" encoding="UTF-8" standalone="no"?>
<svg
   xmlns:dc="http://purl.org/dc/elements/1.1/"
   xmlns:cc="http://creativecommons.org/ns#"
   xmlns:rdf="http://www.w3.org/1999/02/22-rdf-syntax-ns#"
   xmlns:svg="http://www.w3.org/2000/svg"
   xmlns="http://www.w3.org/2000/svg"
   viewBox="0 0 681.93469 488.19199"
   height="488.19199"
   width="681.93469"
   xml:space="preserve"
   id="svg2"
   version="1.1"><metadata
     id="metadata8"><rdf:RDF><cc:Work
         rdf:about=""><dc:format>image/svg+xml</dc:format><dc:type
           rdf:resource="http://purl.org/dc/dcmitype/StillImage" /></cc:Work></rdf:RDF></metadata><defs
     id="defs6"><clipPath
       id="clipPath18"
       clipPathUnits="userSpaceOnUse"><path
         id="path16"
         d="M 0,366.144 H 511.451 V 0 H 0 Z" /></clipPath><linearGradient
       id="linearGradient50"
       spreadMethod="pad"
       gradientTransform="matrix(200.52,300.23001,300.23001,-200.52,331.92407,58.283711)"
       gradientUnits="userSpaceOnUse"
       y2="0"
       x2="1"
       y1="0"
       x1="0"><stop
         id="stop36"
         offset="0"
         style="stop-opacity:1;stop-color:#f5e911" /><stop
         id="stop38"
         offset="0.05"
         style="stop-opacity:1;stop-color:#f5e911" /><stop
         id="stop40"
         offset="0.05009248"
         style="stop-opacity:1;stop-color:#f5e911" /><stop
         id="stop42"
         offset="0.42"
         style="stop-opacity:1;stop-color:#f1471d" /><stop
         id="stop44"
         offset="0.89975532"
         style="stop-opacity:1;stop-color:#f5e911" /><stop
         id="stop46"
         offset="0.9"
         style="stop-opacity:1;stop-color:#f5e911" /><stop
         id="stop48"
         offset="1"
         style="stop-opacity:1;stop-color:#f5e911" /></linearGradient></defs><g
     transform="matrix(1.3333333,0,0,-1.3333333,0,488.192)"
     id="g10"><g
       id="g12"><g
         clip-path="url(#clipPath18)"
         id="g14"><g
           transform="translate(0,364.1443)"
           id="g20"><path
             id="path22"
             style="fill:#f1471d;fill-opacity:1;fill-rule:evenodd;stroke:none"
             d="m 0,0 h 398.63 c -93.606,-7.936 -167.104,-86.412 -167.104,-182.072 0,-95.661 73.502,-174.139 167.11,-182.072 H 0 Z" /></g></g></g><g
       id="g24"><g
         id="g26"><g
           id="g32"><g
             id="g34"><path
               id="path52"
               style="fill:url(#linearGradient50);stroke:none"
               d="m 346.971,292.315 c -17.225,-17.224 -27.879,-41.019 -27.879,-67.301 v 0 c 0,-12.556 2.515,-24.905 7.268,-36.38 v 0 c 4.768,-11.51 11.73,-22.04 20.611,-30.921 v 0 c 4.427,-4.427 11.605,-4.427 16.033,0 v 0 c 4.427,4.428 4.427,11.607 0,16.034 v 0 c -6.843,6.842 -12.159,14.837 -15.738,23.479 v 0 c -3.595,8.678 -5.496,18.109 -5.496,27.788 v 0 c 0,20.023 8.114,38.149 21.234,51.268 v 0 c 13.12,13.119 31.245,21.235 51.268,21.235 v 0 c 20.021,0 38.148,-8.116 51.267,-21.235 v 0 c 13.12,-13.119 21.235,-31.245 21.235,-51.268 v 0 c 0,-12.591 -3.23,-24.694 -9.114,-35.271 v 0 c -5.588,-10.044 -13.55,-18.755 -23.394,-25.255 v 0 l -87.107,-17.17 c -6.14,-1.199 -10.146,-7.147 -8.947,-13.287 v 0 c 1.198,-6.14 7.147,-10.146 13.286,-8.947 v 0 l 89.151,17.571 -0.006,0.029 c 1.3,0.253 2.577,0.741 3.77,1.478 v 0 c 14.003,8.688 25.255,20.675 33.001,34.597 v 0 c 7.771,13.97 12.036,29.844 12.036,46.255 v 0 c 0,26.282 -10.653,50.077 -27.877,67.301 v 0 c -17.225,17.226 -41.019,27.879 -67.301,27.879 v 0 c -26.282,0 -50.077,-10.653 -67.301,-27.879 m 65.196,-13.455 -38.611,-56.781 c -3.499,-5.161 -2.15,-12.181 3.011,-15.678 v 0 c 2.958,-2.005 6.526,-2.417 9.691,-1.433 v 0 l 0.009,-0.029 31.816,9.921 -20.397,-29.996 c -3.499,-5.162 -2.15,-12.182 3.011,-15.68 v 0 c 5.162,-3.498 12.182,-2.149 15.68,3.012 v 0 l 38.137,56.085 c 2.24,2.833 3.09,6.686 1.934,10.394 v 0 c -1.858,5.969 -8.204,9.301 -14.173,7.442 v 0 l -31.816,-9.921 20.398,29.996 c 3.498,5.162 2.15,12.182 -3.011,15.68 v 0 c -1.941,1.315 -4.144,1.945 -6.324,1.945 v 0 c -3.618,0 -7.173,-1.736 -9.355,-4.957 m 44.141,-150.002 -89.149,-17.571 c -6.14,-1.199 -10.146,-7.148 -8.947,-13.288 v 0 c 1.198,-6.14 7.147,-10.145 13.286,-8.947 v 0 l 89.151,17.572 c 6.14,1.199 10.145,7.148 8.947,13.287 v 0 c -1.056,5.408 -5.795,9.16 -11.105,9.16 v 0 c -0.72,0 -1.45,-0.07 -2.183,-0.213 m 2.182,-35.819 c -0.719,0 -1.449,-0.068 -2.182,-0.211 v 0 L 367.362,75.296 c -0.626,-0.111 -1.238,-0.274 -1.829,-0.484 v 0 l -0.067,-0.025 -0.13,-0.047 -0.165,-0.063 -0.02,-0.009 c -1.446,-0.572 -2.726,-1.423 -3.79,-2.478 v 0 l -0.043,-0.042 -0.041,-0.042 c -1.055,-1.064 -1.907,-2.344 -2.478,-3.79 v 0 l -0.009,-0.02 -0.063,-0.165 -0.047,-0.13 -0.025,-0.067 c -0.405,-1.136 -0.632,-2.346 -0.653,-3.59 v 0 l -0.001,-0.053 -10e-4,-0.152 10e-4,-0.153 0.001,-0.053 c 0.021,-1.244 0.247,-2.453 0.653,-3.59 v 0 l 0.025,-0.067 0.047,-0.13 0.063,-0.165 0.009,-0.02 c 0.572,-1.446 1.423,-2.726 2.478,-3.79 v 0 l 0.041,-0.043 0.043,-0.042 c 1.064,-1.054 2.344,-1.906 3.79,-2.477 v 0 l 0.02,-0.009 0.165,-0.063 0.13,-0.048 0.067,-0.024 c 0.591,-0.211 1.203,-0.373 1.829,-0.484 v 0 l 44.739,-8.818 c 6.14,-1.199 12.09,2.807 13.288,8.947 v 0 c 0.729,3.733 -0.467,7.395 -2.896,9.963 v 0 l 38.156,7.52 c 6.14,1.199 10.145,7.148 8.947,13.288 v 0 c -1.056,5.406 -5.794,9.158 -11.104,9.158 v 0 c -0.001,0 -0.002,0 -0.002,0" /></g></g></g></g></g></svg>