<?xml version="1.0" encoding="UTF-8" standalone="no"?>
<svg
   xmlns:dc="http://purl.org/dc/elements/1.1/"
   xmlns:cc="http://creativecommons.org/ns#"
   xmlns:rdf="http://www.w3.org/1999/02/22-rdf-syntax-ns#"
   xmlns:svg="http://www.w3.org/2000/svg"
   xmlns="http://www.w3.org/2000/svg"
   viewBox="0 0 727.41467 488.19199"
   height="488.19199"
   width="727.41467"
   xml:space="preserve"
   id="svg2"
   version="1.1"><metadata
     id="metadata8"><rdf:RDF><cc:Work
         rdf:about=""><dc:format>image/svg+xml</dc:format><dc:type
           rdf:resource="http://purl.org/dc/dcmitype/StillImage" /></cc:Work></rdf:RDF></metadata><defs
     id="defs6"><clipPath
       id="clipPath18"
       clipPathUnits="userSpaceOnUse"><path
         id="path16"
         d="M 0,366.144 H 545.561 V 0 H 0 Z" /></clipPath><linearGradient
       id="linearGradient50"
       spreadMethod="pad"
       gradientTransform="matrix(274.25,281.04001,281.04001,-274.25,307.5986,72.941582)"
       gradientUnits="userSpaceOnUse"
       y2="0"
       x2="1"
       y1="0"
       x1="0"><stop
         id="stop36"
         offset="0"
         style="stop-opacity:1;stop-color:#f5e911" /><stop
         id="stop38"
         offset="0.05"
         style="stop-opacity:1;stop-color:#f5e911" /><stop
         id="stop40"
         offset="0.05009248"
         style="stop-opacity:1;stop-color:#f5e911" /><stop
         id="stop42"
         offset="0.42"
         style="stop-opacity:1;stop-color:#f1471d" /><stop
         id="stop44"
         offset="0.89975532"
         style="stop-opacity:1;stop-color:#f5e911" /><stop
         id="stop46"
         offset="0.9"
         style="stop-opacity:1;stop-color:#f5e911" /><stop
         id="stop48"
         offset="1"
         style="stop-opacity:1;stop-color:#f5e911" /></linearGradient></defs><g
     transform="matrix(1.3333333,0,0,-1.3333333,0,488.192)"
     id="g10"><g
       id="g12"><g
         clip-path="url(#clipPath18)"
         id="g14"><g
           transform="translate(0,364.1443)"
           id="g20"><path
             id="path22"
             style="fill:#f1471d;fill-opacity:1;fill-rule:evenodd;stroke:none"
             d="M 0,0 H 414.27 C 313.714,-0.001 232.202,-81.514 232.202,-182.071 c 0,-100.557 81.512,-182.07 182.068,-182.071 v -0.002 H 0 Z" /></g></g></g><g
       id="g24"><g
         id="g26"><g
           id="g32"><g
             id="g34"><path
               id="path52"
               style="fill:url(#linearGradient50);stroke:none"
               d="m 389.197,310.701 -0.205,-0.037 c -5.498,-0.959 -9.178,-6.198 -8.219,-11.696 v 0 l 4.49,-25.456 c -2.732,-0.859 -5.388,-1.83 -7.967,-2.904 v 0 c -3.519,-1.467 -6.92,-3.134 -10.191,-4.983 v 0 l -0.558,0.39 c -9.887,6.921 -21.666,9.181 -32.674,7.239 v 0 c -10.778,-1.901 -20.876,-7.829 -27.799,-17.341 v 0 l -0.593,-0.792 0.019,-0.012 -0.019,-0.027 c -3.186,-4.561 -2.07,-10.842 2.489,-14.027 v 0 l 28.774,-20.148 c 4.56,-3.185 10.841,-2.07 14.027,2.49 v 0 c 3.185,4.559 2.069,10.841 -2.49,14.026 v 0 l -18.712,13.101 c 2.416,1.39 5.055,2.336 7.781,2.816 v 0 c 6,1.058 12.371,-0.139 17.66,-3.841 v 0 l 5.976,-4.183 c 3.487,-2.438 7.983,-2.356 11.33,-0.143 v 0 l 0.009,-0.016 c 3.969,2.641 8.221,4.927 12.715,6.802 v 0 c 4.442,1.85 9.059,3.297 13.805,4.279 v 0 c 5.36,1.094 8.854,6.257 7.915,11.613 v 0 l 0.027,0.003 -3.969,22.506 c 2.702,-0.719 5.24,-1.909 7.497,-3.49 v 0 c 4.934,-3.454 8.563,-8.8 9.691,-15.193 v 0 l 1.265,-7.177 c 0.785,-4.5 4.436,-7.78 8.75,-8.298 v 0 c 4.444,-0.946 8.801,-2.305 13.015,-4.039 v 0 c 4.401,-1.812 8.688,-4.09 12.796,-6.785 v 0 c 4.669,-3.055 10.934,-1.745 13.989,2.923 v 0 l 0.254,0.411 12.648,18.065 c 1.39,-2.416 2.337,-5.055 2.816,-7.78 v 0 c 1.058,-6.001 -0.138,-12.372 -3.841,-17.661 v 0 l -4.183,-5.975 c -2.437,-3.488 -2.356,-7.984 -0.143,-11.33 v 0 l -0.015,-0.01 c 2.641,-3.969 4.927,-8.222 6.801,-12.715 v 0 c 1.85,-4.443 3.297,-9.059 4.279,-13.805 v 0 c 1.095,-5.36 6.257,-8.854 11.613,-7.915 v 0 l 0.003,-0.027 22.506,3.969 c -0.719,-2.702 -1.909,-5.24 -3.489,-7.498 v 0 c -3.454,-4.933 -8.8,-8.563 -15.194,-9.689 v 0 l -7.177,-1.266 c -4.5,-0.785 -7.78,-4.436 -8.298,-8.75 v 0 c -0.946,-4.444 -2.305,-8.802 -4.039,-13.014 v 0 c -1.812,-4.401 -4.09,-8.689 -6.785,-12.797 v 0 c -3.055,-4.669 -1.745,-10.934 2.923,-13.988 v 0 l 0.411,-0.255 18.065,-12.648 c -2.415,-1.389 -5.055,-2.336 -7.78,-2.816 v 0 c -6.001,-1.057 -12.372,0.139 -17.661,3.84 v 0 l -5.975,4.184 c -3.488,2.438 -7.984,2.357 -11.33,0.144 v 0 l -0.01,0.014 c -3.969,-2.641 -8.223,-4.927 -12.714,-6.801 v 0 c -4.444,-1.851 -9.06,-3.298 -13.805,-4.279 v 0 c -5.361,-1.094 -8.855,-6.257 -7.916,-11.613 v 0 l -0.027,-0.003 3.969,-22.506 c -2.702,0.72 -5.24,1.908 -7.497,3.489 v 0 c -4.934,3.454 -8.563,8.8 -9.69,15.195 v 0 l -1.266,7.175 c -0.784,4.501 -4.436,7.781 -8.749,8.299 v 0 c -4.445,0.945 -8.802,2.305 -13.015,4.039 v 0 c -4.401,1.811 -8.689,4.089 -12.797,6.785 v 0 c -4.669,3.055 -10.934,1.745 -13.988,-2.924 v 0 L 358.47,115.434 345.82,97.37 c -1.387,2.416 -2.334,5.054 -2.814,7.781 v 0 c -1.057,6 0.139,12.371 3.841,17.66 v 0 l 4.184,5.975 c 3.186,4.56 2.07,10.841 -2.49,14.026 v 0 c -4.56,3.186 -10.84,2.07 -14.026,-2.489 v 0 l -4.184,-5.975 c -6.921,-9.887 -9.18,-21.666 -7.239,-32.674 v 0 c 1.902,-10.778 7.829,-20.876 17.341,-27.799 v 0 l 0.791,-0.593 0.014,0.019 0.027,-0.019 c 4.56,-3.186 10.84,-2.071 14.026,2.489 v 0 l 14.809,21.15 c 2.508,-1.297 5.091,-2.494 7.743,-3.586 v 0 c 3.454,-1.422 7.014,-2.647 10.664,-3.664 v 0 l 0.117,-0.677 c 2.091,-11.851 8.856,-21.785 18.069,-28.234 v 0 c 9.201,-6.442 20.828,-9.399 32.655,-7.313 v 0 l 0.206,0.036 c 5.498,0.959 9.177,6.197 8.218,11.696 v 0 l -4.49,25.456 c 2.732,0.859 5.389,1.83 7.967,2.904 v 0 c 3.519,1.467 6.92,3.134 10.192,4.983 v 0 l 0.557,-0.39 c 9.887,-6.922 21.666,-9.18 32.674,-7.24 v 0 c 10.779,1.903 20.877,7.829 27.8,17.342 v 0 l 0.593,0.791 -0.019,0.014 0.019,0.027 c 3.186,4.56 2.07,10.84 -2.49,14.026 v 0 l -21.149,14.809 c 1.296,2.507 2.494,5.091 3.585,7.743 v 0 c 1.422,3.453 2.648,7.014 3.665,10.663 v 0 l 0.677,0.118 c 11.851,2.091 21.783,8.856 28.233,18.069 v 0 c 6.443,9.201 9.399,20.828 7.314,32.655 v 0 l -0.037,0.206 c -0.959,5.498 -6.197,9.177 -11.696,8.218 v 0 l -25.456,-4.49 c -0.859,2.732 -1.83,5.389 -2.904,7.967 v 0 c -1.467,3.517 -3.134,6.92 -4.983,10.192 v 0 l 0.39,0.557 c 6.922,9.887 9.181,21.666 7.239,32.674 v 0 c -1.901,10.779 -7.829,20.876 -17.341,27.799 v 0 l -0.791,0.594 -0.013,-0.019 -0.027,0.019 c -4.561,3.185 -10.842,2.07 -14.027,-2.49 v 0 l -14.808,-21.149 c -2.508,1.296 -5.092,2.494 -7.744,3.585 v 0 c -3.453,1.422 -7.014,2.648 -10.663,3.665 v 0 l -0.119,0.676 c -2.09,11.852 -8.855,21.784 -18.067,28.233 v 0 c -7.234,5.066 -15.966,7.976 -25.118,7.976 v 0 c -2.489,0 -5.009,-0.216 -7.538,-0.661 m -17.52,-86.032 c -8.64,-8.641 -14.669,-19.898 -16.797,-32.48 v 0 h -61.562 c -5.586,0 -10.115,-4.529 -10.115,-10.115 v 0 c 0,-5.587 4.529,-10.116 10.115,-10.116 v 0 h 70.83 c 5.586,0 10.115,4.529 10.115,10.116 v 0 c 0,11.048 4.479,21.051 11.717,28.29 v 0 c 7.24,7.239 17.244,11.717 28.293,11.717 v 0 c 11.048,0 21.053,-4.478 28.291,-11.718 v 0 c 7.24,-7.238 11.718,-17.243 11.718,-28.291 v 0 c 0,-11.049 -4.478,-21.053 -11.718,-28.291 v 0 c -7.238,-7.239 -17.243,-11.719 -28.291,-11.719 v 0 c -3.546,0 -7.031,0.459 -10.365,1.353 v 0 c -3.432,0.919 -6.689,2.256 -9.679,3.982 v 0 c -4.823,2.771 -10.98,1.108 -13.751,-3.715 v 0 c -2.772,-4.823 -1.109,-10.98 3.714,-13.751 v 0 c 4.629,-2.672 9.508,-4.697 14.5,-6.033 v 0 c 5.089,-1.366 10.329,-2.066 15.581,-2.066 v 0 c 16.633,0 31.696,6.745 42.595,17.645 v 0 c 10.9,10.899 17.644,25.962 17.644,42.595 v 0 c 0,16.634 -6.743,31.695 -17.644,42.595 v 0 c -10.899,10.9 -25.962,17.645 -42.595,17.645 v 0 c -16.633,0 -31.696,-6.745 -42.596,-17.643" /></g></g></g></g></g></svg>