<?xml version="1.0" encoding="UTF-8" standalone="no"?>
<svg
   xmlns:dc="http://purl.org/dc/elements/1.1/"
   xmlns:cc="http://creativecommons.org/ns#"
   xmlns:rdf="http://www.w3.org/1999/02/22-rdf-syntax-ns#"
   xmlns:svg="http://www.w3.org/2000/svg"
   xmlns="http://www.w3.org/2000/svg"
   viewBox="0 0 703.38269 488.19199"
   height="488.19199"
   width="703.38269"
   xml:space="preserve"
   id="svg2"
   version="1.1"><metadata
     id="metadata8"><rdf:RDF><cc:Work
         rdf:about=""><dc:format>image/svg+xml</dc:format><dc:type
           rdf:resource="http://purl.org/dc/dcmitype/StillImage" /></cc:Work></rdf:RDF></metadata><defs
     id="defs6"><clipPath
       id="clipPath18"
       clipPathUnits="userSpaceOnUse"><path
         id="path16"
         d="M 0,366.144 H 527.537 V 0 H 0 Z" /></clipPath><linearGradient
       id="linearGradient50"
       spreadMethod="pad"
       gradientTransform="matrix(234.41002,241.86002,241.86002,-234.41002,323.4314,88.344551)"
       gradientUnits="userSpaceOnUse"
       y2="0"
       x2="1"
       y1="0"
       x1="0"><stop
         id="stop36"
         offset="0"
         style="stop-opacity:1;stop-color:#f5e911" /><stop
         id="stop38"
         offset="0.05"
         style="stop-opacity:1;stop-color:#f5e911" /><stop
         id="stop40"
         offset="0.05009248"
         style="stop-opacity:1;stop-color:#f5e911" /><stop
         id="stop42"
         offset="0.42"
         style="stop-opacity:1;stop-color:#f1471d" /><stop
         id="stop44"
         offset="0.89975532"
         style="stop-opacity:1;stop-color:#f5e911" /><stop
         id="stop46"
         offset="0.9"
         style="stop-opacity:1;stop-color:#f5e911" /><stop
         id="stop48"
         offset="1"
         style="stop-opacity:1;stop-color:#f5e911" /></linearGradient></defs><g
     transform="matrix(1.3333333,0,0,-1.3333333,0,488.192)"
     id="g10"><g
       id="g12"><g
         clip-path="url(#clipPath18)"
         id="g14"><g
           transform="translate(0,364.1443)"
           id="g20"><path
             id="path22"
             style="fill:#f1471d;fill-opacity:1;fill-rule:evenodd;stroke:none"
             d="M 0,0 H 414.27 V -0.001 C 313.714,-0.002 232.201,-81.516 232.201,-182.072 c 0,-100.557 81.513,-182.07 182.069,-182.071 v -0.001 H 0 Z" /></g></g></g><g
       id="g24"><g
         id="g26"><g
           id="g32"><g
             id="g34"><path
               id="path52"
               style="fill:url(#linearGradient50);stroke:none"
               d="m 386.347,293.338 c -5.254,0 -10.023,-2.141 -13.474,-5.592 v 0 c -3.451,-3.451 -5.592,-8.22 -5.592,-13.474 v 0 -45.209 h -45.21 c -5.253,0 -10.023,-2.143 -13.473,-5.593 v 0 l 0.02,-0.021 -0.02,-0.02 c -3.448,-3.45 -5.591,-8.207 -5.591,-13.433 v 0 -55.847 c 0,-4.845 1.845,-9.291 4.862,-12.663 v 0 c 0.227,-0.281 0.468,-0.55 0.729,-0.811 v 0 c 3.45,-3.449 8.22,-5.592 13.473,-5.592 v 0 h 45.21 v -45.21 c 0,-4.846 1.845,-9.292 4.864,-12.663 v 0 c 0.226,-0.281 0.468,-0.55 0.728,-0.81 v 0 c 3.45,-3.45 8.22,-5.593 13.474,-5.593 v 0 h 55.846 c 5.254,0 10.024,2.143 13.473,5.593 v 0 c 3.45,3.45 5.594,8.22 5.594,13.473 v 0 45.21 h 45.211 c 5.254,0 10.024,2.143 13.473,5.592 v 0 c 3.45,3.451 5.593,8.221 5.593,13.474 v 0 55.847 c 0,5.253 -2.143,10.023 -5.593,13.474 v 0 c -3.449,3.45 -8.219,5.593 -13.473,5.593 v 0 H 461.26 v 45.209 c 0,5.254 -2.144,10.024 -5.594,13.474 v 0 l -0.019,-0.021 -0.021,0.021 c -3.45,3.447 -8.208,5.592 -13.433,5.592 v 0 z m -63.11,-84.506 h 54.159 c 5.586,0 10.116,4.529 10.116,10.115 v 0 54.161 h 53.518 v -54.161 c 0,-5.586 4.529,-10.115 10.115,-10.115 v 0 h 54.163 v -53.519 h -54.163 c -5.586,0 -10.115,-4.529 -10.115,-10.115 v 0 -54.161 h -53.518 v 54.161 c 0,5.586 -4.53,10.115 -10.116,10.115 v 0 h -54.159 z" /></g></g></g></g></g></svg>