<?xml version="1.0" encoding="UTF-8" standalone="no"?>
<svg
   xmlns:dc="http://purl.org/dc/elements/1.1/"
   xmlns:cc="http://creativecommons.org/ns#"
   xmlns:rdf="http://www.w3.org/1999/02/22-rdf-syntax-ns#"
   xmlns:svg="http://www.w3.org/2000/svg"
   xmlns="http://www.w3.org/2000/svg"
   viewBox="0 0 698.492 488.19199"
   height="488.19199"
   width="698.492"
   xml:space="preserve"
   id="svg2"
   version="1.1"><metadata
     id="metadata8"><rdf:RDF><cc:Work
         rdf:about=""><dc:format>image/svg+xml</dc:format><dc:type
           rdf:resource="http://purl.org/dc/dcmitype/StillImage" /></cc:Work></rdf:RDF></metadata><defs
     id="defs6"><clipPath
       id="clipPath18"
       clipPathUnits="userSpaceOnUse"><path
         id="path16"
         d="M 0,366.144 H 523.869 V 0 H 0 Z" /></clipPath><linearGradient
       id="linearGradient50"
       spreadMethod="pad"
       gradientTransform="matrix(-241.95996,252.14005,252.14005,241.95996,500.73047,94.897217)"
       gradientUnits="userSpaceOnUse"
       y2="0"
       x2="1"
       y1="0"
       x1="0"><stop
         id="stop36"
         offset="0"
         style="stop-opacity:1;stop-color:#f5e911" /><stop
         id="stop38"
         offset="0.05"
         style="stop-opacity:1;stop-color:#f5e911" /><stop
         id="stop40"
         offset="0.05009248"
         style="stop-opacity:1;stop-color:#f5e911" /><stop
         id="stop42"
         offset="0.42"
         style="stop-opacity:1;stop-color:#f1471d" /><stop
         id="stop44"
         offset="0.89975532"
         style="stop-opacity:1;stop-color:#f5e911" /><stop
         id="stop46"
         offset="0.9"
         style="stop-opacity:1;stop-color:#f5e911" /><stop
         id="stop48"
         offset="1"
         style="stop-opacity:1;stop-color:#f5e911" /></linearGradient></defs><g
     transform="matrix(1.3333333,0,0,-1.3333333,0,488.192)"
     id="g10"><g
       id="g12"><g
         clip-path="url(#clipPath18)"
         id="g14"><g
           transform="translate(0,364.1443)"
           id="g20"><path
             id="path22"
             style="fill:#f1471d;fill-opacity:1;fill-rule:evenodd;stroke:none"
             d="m 0,0 h 398.63 c -93.606,-7.936 -167.104,-86.412 -167.104,-182.072 0,-95.661 73.502,-174.139 167.11,-182.072 H 0 Z" /></g></g></g><g
       id="g24"><g
         id="g26"><g
           id="g32"><g
             id="g34"><path
               id="path52"
               style="fill:url(#linearGradient50);stroke:none"
               d="m 444.037,307.141 -16.034,-11.312 c -3.065,-2.168 -4.806,-5.961 -4.163,-9.914 v 0 l 5.298,-32.236 -132.669,-93.603 c -4.577,-3.219 -5.677,-9.542 -2.459,-14.119 v 0 c 3.219,-4.577 9.543,-5.677 14.119,-2.458 v 0 l 137.861,97.266 c 3.412,2.401 4.892,6.528 4.089,10.368 v 0 l -5.223,31.782 6.365,4.491 c 12.611,-5.825 47.421,-26.808 50.242,-81.773 v 0 l -4.294,-3.03 -24.749,26.624 c -3.492,3.752 -9.169,4.26 -13.245,1.386 v 0 l -49.863,-35.178 c -3.907,-2.748 -5.279,-7.756 -3.597,-12.01 v 0 l 28.831,-86.128 h -66.952 l 25.435,63.889 c 2.057,5.19 -0.481,11.069 -5.671,13.127 v 0 c -5.19,2.057 -11.069,-0.481 -13.126,-5.671 v 0 L 343.624,91.758 c -0.707,-1.385 -1.107,-2.952 -1.107,-4.614 v 0 c 0,-5.607 4.546,-10.152 10.153,-10.152 v 0 h 95.948 v 0.03 c 1.063,0 2.146,0.169 3.212,0.525 v 0 c 5.299,1.774 8.158,7.51 6.384,12.81 v 0 l -31.079,92.85 36.478,25.735 24.576,-26.437 c 3.372,-3.822 9.155,-4.574 13.421,-1.574 v 0 l 15.975,11.272 -0.01,0.016 c 2.629,1.854 4.334,4.93 4.294,8.391 v 0 c -1.074,80.444 -60.079,104.657 -67.958,107.535 v 0 c -1.279,0.555 -2.662,0.841 -4.054,0.841 v 0 c -2.014,0 -4.048,-0.598 -5.82,-1.845" /></g></g></g></g></g></svg>