<?xml version="1.0" encoding="UTF-8" standalone="no"?>
<svg
   xmlns:dc="http://purl.org/dc/elements/1.1/"
   xmlns:cc="http://creativecommons.org/ns#"
   xmlns:rdf="http://www.w3.org/1999/02/22-rdf-syntax-ns#"
   xmlns:svg="http://www.w3.org/2000/svg"
   xmlns="http://www.w3.org/2000/svg"
   viewBox="0 0 1884.0267 473.104"
   height="473.104"
   width="1884.0267"
   xml:space="preserve"
   id="svg2"
   version="1.1"><metadata
     id="metadata8"><rdf:RDF><cc:Work
         rdf:about=""><dc:format>image/svg+xml</dc:format><dc:type
           rdf:resource="http://purl.org/dc/dcmitype/StillImage" /></cc:Work></rdf:RDF></metadata><defs
     id="defs6"><linearGradient
       id="linearGradient32"
       spreadMethod="pad"
       gradientTransform="matrix(1118.4,710.40002,710.40002,-1118.4,767.84979,216.01122)"
       gradientUnits="userSpaceOnUse"
       y2="0"
       x2="1"
       y1="0"
       x1="0"><stop
         id="stop24"
         offset="0"
         style="stop-opacity:1;stop-color:#f14f1b" /><stop
         id="stop26"
         offset="0.00245031"
         style="stop-opacity:1;stop-color:#f14f1b" /><stop
         id="stop28"
         offset="0.9"
         style="stop-opacity:1;stop-color:#f5e911" /><stop
         id="stop30"
         offset="1"
         style="stop-opacity:1;stop-color:#f5e911" /></linearGradient></defs><g
     transform="matrix(1.3333333,0,0,-1.3333333,0,473.104)"
     id="g10"><g
       id="g12"><g
         id="g14"><g
           id="g20"><g
             id="g22"><path
               id="path34"
               style="fill:url(#linearGradient32);stroke:none"
               d="m 367.034,352.828 c -41.682,0 -82.054,-10.66 -117.736,-30.133 v 0 C 213.659,303.243 182.85,275.024 160.253,239.896 v 0 L 160.278,239.88 0,0 h 67.138 l 139.823,209.268 0.327,0.439 c 17.5,27.207 41.269,49.011 68.7,63.982 v 0 c 27.395,14.951 58.609,23.134 91.046,23.134 v 0 h 1015.985 c 15.464,0 28.002,12.538 28.002,28.002 v 0 c 0,15.464 -12.538,28.003 -28.002,28.003 v 0 z" /></g></g></g></g></g></svg>