<svg width="1671" height="451" viewBox="0 0 1671 451" fill="none" xmlns="http://www.w3.org/2000/svg">
<path d="M1235.57 305.776L1135.37 227.135L1231.6 147.292H1179.82L1086.51 224.714V147.292H1047.5V305.776H1086.51V229.427L1183.79 305.776H1235.57Z" fill="white"/>
<path d="M1029.9 305.776L951.039 147.292H891.785L812.922 305.776H854.554L921.41 171.432L988.267 305.776H1029.9Z" fill="white"/>
<path d="M656.137 236.444L688.493 171.432L720.847 236.444H656.137ZM755.345 305.776H796.983L718.115 147.292H658.869L580 305.776H621.639L640.839 267.188H736.144L755.345 305.776Z" fill="white"/>
<path d="M1409.68 236.329C1409.68 258.237 1391.91 275.997 1370.01 275.997H1318.08C1296.17 275.997 1278.42 258.237 1278.42 236.329V216.403C1278.42 194.503 1296.17 176.744 1318.08 176.744H1370.01C1391.91 176.744 1409.68 194.503 1409.68 216.403V236.329ZM1376.54 146H1311.54C1270.79 146 1237.76 179.032 1237.76 219.781V232.96C1237.76 273.708 1270.79 306.741 1311.54 306.741H1376.54C1417.29 306.741 1450.32 273.708 1450.32 232.96V219.781C1450.32 179.032 1417.29 146 1376.54 146Z" fill="white"/>
<path d="M1634.68 213.121C1634.68 226.267 1624.01 236.936 1610.86 236.936H1515.58V178.028H1610.86C1624.01 178.028 1634.68 188.684 1634.68 201.839V213.121ZM1617.75 147.292H1476.57V305.776H1515.58V267.663H1617.75C1646.61 267.663 1670.01 244.267 1670.01 215.395V199.556C1670.01 170.697 1646.61 147.292 1617.75 147.292Z" fill="white"/>
<path d="M398.141 44.8911V17.4844H409.795C412.722 17.4844 414.854 17.7311 416.181 18.2218C417.514 18.7111 418.571 19.5858 419.37 20.8431C420.169 22.1071 420.569 23.5431 420.569 25.1658C420.569 27.2258 419.97 28.9231 418.765 30.2631C417.561 31.6018 415.759 32.4404 413.359 32.7938C414.554 33.4898 415.534 34.2511 416.309 35.0938C417.086 35.9271 418.131 37.4124 419.449 39.5444L422.791 44.8911H416.174L412.205 38.9084C410.785 36.7791 409.807 35.4404 409.279 34.8871C408.755 34.3391 408.199 33.9578 407.613 33.7524C407.017 33.5484 406.087 33.4431 404.81 33.4431H403.69V44.8911H398.141ZM403.69 29.0764H407.785C410.438 29.0764 412.093 28.9644 412.754 28.7391C413.413 28.5204 413.937 28.1311 414.305 27.5818C414.682 27.0324 414.866 26.3418 414.866 25.5218C414.866 24.5978 414.621 23.8524 414.127 23.2804C413.637 22.7124 412.941 22.3564 412.049 22.2098C411.593 22.1484 410.247 22.1138 408.01 22.1138H403.69V29.0764Z" fill="#F1471D"/>
<path d="M408.618 0.471831C417.04 0.471831 424.664 3.88383 430.18 9.40116C435.697 14.9198 439.112 22.5438 439.112 30.9612C439.112 39.3825 435.697 47.0078 430.18 52.5252C424.664 58.0438 417.04 61.4585 408.618 61.4585C400.208 61.4585 392.585 58.0438 387.068 52.5252C381.54 46.9945 378.125 39.3758 378.125 30.9612C378.125 22.5505 381.54 14.9318 387.054 9.4105C392.585 3.88383 400.208 0.471831 408.618 0.471831ZM426.318 13.2585C421.793 8.73316 415.532 5.93049 408.618 5.93049C401.702 5.93049 395.441 8.7305 390.909 13.2558C386.386 17.7878 383.584 24.0478 383.584 30.9612C383.584 37.8785 386.386 44.1385 390.909 48.6705C395.441 53.1958 401.702 55.9958 408.618 55.9958C415.532 55.9958 421.793 53.1932 426.318 48.6678C430.846 44.1385 433.653 37.8745 433.653 30.9612C433.653 24.0518 430.846 17.7878 426.318 13.2585Z" fill="#F1471D"/>
<path d="M185.588 30.8867C182.625 34.2067 182.403 39.1586 184.873 42.8493L265.947 164.208H265.928L365.121 312.679C373.684 325.5 364.499 342.695 349.071 342.695H158.428C143.005 342.695 133.817 325.5 142.384 312.679L234.279 175.115C237.395 170.457 234.057 164.208 228.452 164.208H137.427C111.184 164.208 86.6734 177.307 72.0947 199.133L19.3547 278.077C-29.9933 351.931 22.9534 450.965 111.772 450.965H395.732C484.549 450.965 537.485 351.931 488.149 278.077L329.869 41.1546C311.752 14.0346 282.756 0.47467 253.765 0.473328C228.695 0.470673 203.629 10.6093 185.588 30.8867Z" fill="url(#paint0_linear_180_1442)"/>
<defs>
<linearGradient id="paint0_linear_180_1442" x1="47.9542" y1="407.882" x2="581.594" y2="-81.7444" gradientUnits="userSpaceOnUse">
<stop stop-color="#F5E911"/>
<stop offset="0.05" stop-color="#F5E911"/>
<stop offset="0.0500925" stop-color="#F5E911"/>
<stop offset="0.42" stop-color="#F1471D"/>
<stop offset="0.899755" stop-color="#F5E911"/>
<stop offset="0.9" stop-color="#F5E911"/>
<stop offset="1" stop-color="#F5E911"/>
</linearGradient>
</defs>
</svg>
